<?xml version="1.0" standalone="no"?>
<!DOCTYPE svg PUBLIC "-//W3C//DTD SVG 1.1//EN" "http://www.w3.org/Graphics/SVG/1.1/DTD/svg11.dtd" >
<svg xmlns="http://www.w3.org/2000/svg">
<metadata>Generated by IcoMoon</metadata>
<defs>
<font id="ricons" horiz-adv-x="1024">
<font-face units-per-em="1024" ascent="960" descent="-64" />
<missing-glyph horiz-adv-x="1024" />
<glyph unicode="&#x20;" horiz-adv-x="512" d="" />
<glyph unicode="&#xe900;" glyph-name="rekhtalogo" d="M351.495 469.21c-11.361 10.187-28.013 15.279-49.168 15.279-40.548 0-68.756-21.156-68.756-51.518 0-14.886 6.855-27.618 19.197-36.434 11.558-8.031 30.362-12.537 53.086-12.537 35.454 0 54.65 10.97 61.115 34.28h-6.072c-5.682-18.216-21.744-27.815-46.034-27.815-25.464 0-38.393 13.32-38.786 39.764h91.675c1.753 12.767-5.679 29.579-16.257 38.981zM328.381 437.086h-52.889c-0.197 2.154-0.197 3.721-0.197 4.896 0 7.443 1.568 15.474 4.701 22.722 4.506 11.363 10.578 15.281 23.114 15.281 8.816 0 15.084-3.33 19.394-10.382 4.113-6.66 6.465-15.476 6.465-24.878 0-2.547-0.197-4.113-0.588-7.638zM469.816 450.601c11.166 11.361 31.146 19.589 47.993 19.98v5.682h-63.467v-5.682c15.084-0.783 18.609-2.154 18.609-7.050 0-2.352-4.113-6.66-9.011-9.599l-40.548-24.681v82.749c-22.331-0.783-27.62-0.979-57.395-1.371v-6.66h18.804v-108.999h-17.826v-6.465h72.87v6.465h-16.454v25.857l13.713 8.619 24.681-34.476h-10.773v-6.465h74.437v6.465h-13.908l-41.725 55.631zM683.145 438.848c0 11.641-2.56 23.019-11.751 32.321-8.228 8.423-19.982 12.341-37.22 12.341-21.548 0-35.846-6.269-45.836-20.177v48.667c-23.702-0.783-28.601-0.979-59.158-1.371l0.196-6.66h19.001l0.588-108.999h-19.392v-6.465h78.745v6.465h-19.98c0 0 0 38.363 0 45.053 0.114 8.865 1.447 18.91 5.877 23.702 6.371 7.074 15.279 11.753 25.268 11.753 14.886 0 23.31-9.795 23.31-27.62v-52.889h-19.587v-6.465h78.745v6.465h-18.806c0 0 0 35.429 0 43.877zM759.145 393.99c-4.506 0-8.424 2.156-10.382 5.877-1.764 2.94-1.959 4.701-1.959 15.867v55.045h26.64l-0.003 5.666h-26.243l-0.199 31.747h-4.896c-9.012-24.288-20.177-31.929-47.404-32.124v-5.289h14.691v-55.828c0-6.267 1.764-14.103 4.31-17.63 5.289-8.031 16.062-12.34 30.753-12.34 24.522 0 29.856 11.597 30.726 14.382l-3.137 1.794c-1.422-2.934-6.338-7.166-12.896-7.166zM205.526 480.092c-12.289 0-24.054-5.908-29.784-18.677l-0.114 17.546h-4.974c-2.863-6.977-6.121-14.172-12.14-19.779-14.661-12.331-33.432-11.815-33.432-11.815v-0.004h-12.744v-5.343h12.744v-46.789h-19.154v-6.449h88.958l0.027 6.449h-19.171v43.716c0 8.136 1.564 13.292 3.128 17.98 4.105 11.531 13.951 19.076 26.656 19.076 9.182 0 17.066-4.342 19.718-9.402-4.294 3.3-9.947 4.963-14.442 4.963-10.746 0-17.468-7.935-17.468-17.117 0-8.989 8.012-15.833 18.764-15.833 11.333 0 21.107 9.187 21.107 19.933 0.001 10.765-11.653 21.545-27.679 21.545zM918.072 394.97l-10.452 0.003 0.019 38.783c0 21.939-2.352 30.362-10.773 37.805-8.228 7.443-24.095 11.754-43.684 11.754-19.392 0-41.723-3.918-51.518-9.012-7.638-4.113-11.361-9.207-11.361-15.867 0-9.012 7.836-15.084 19.392-15.084 10.775 0 18.611 5.877 18.611 13.908 0 7.248-7.641 13.124-17.043 13.124-2.351 0-3.918-0.39-7.445-1.371 6.269 5.289 18.611 8.226 34.28 8.226 17.63 0 29.579-8.031 29.579-19.784 0-11.556-13.124-18.999-37.413-20.958-18.023-1.568-30.95-4.31-36.239-7.64-7.052-4.506-10.97-11.556-10.97-19.589 0-16.452 14.103-25.269 40.352-25.269 16.064 0 29.384 3.33 36.434 8.816 2.744 2.154 4.703 4.308 9.012 9.99l-0.071-14.3h49.29v6.464zM862.976 402.609c-4.113-6.66-13.515-11.751-21.939-11.751-10.773 0-19.197 8.421-19.197 18.804 0 10.578 7.443 17.826 24.29 23.507 13.32 4.506 15.279 5.484 20.763 10.38 0.588-7.443 0.783-11.166 0.783-16.257 0-11.754-1.371-19.196-4.701-24.683z" />
<glyph unicode="&#xe901;" glyph-name="rekhtamonogram" d="M713.635 704c-68.907 0-134.88-33.128-167.007-104.728l-0.637 98.386h-27.892c-16.056-39.124-34.323-79.47-68.075-110.906-82.212-69.145-187.465-66.249-187.465-66.249v-0.022h-71.458v-29.959h71.458v-262.362h-107.4v-36.16h498.813l0.153 36.16h-107.498v245.128c0 45.621 8.77 74.532 17.54 100.816 23.018 64.655 78.226 106.967 149.467 106.967 51.486 0 95.695-24.35 110.564-52.722-24.080 18.506-55.777 27.828-80.981 27.828-60.258 0-97.945-44.492-97.945-95.98 0-50.407 44.929-88.78 105.214-88.78 63.547 0 118.353 51.514 118.353 111.771 0.001 60.363-65.345 120.812-155.205 120.812z" />
<glyph unicode="&#xe902;" glyph-name="aamozishlogo" d="M519.202 405.355c-0.482 0.008-0.932-0.172-1.556-0.423-1.063-0.427-2.671-1.072-5.143-1.029-12.236 0.214-18.286 9.166-17.981 26.608 0.063 3.609 0.566 7.939 1.099 12.524 0.628 5.4 1.276 10.983 1.372 16.476 0.151 8.68-5.268 11.868-10.39 11.957-7.759 0.135-14.689-7.196-26.171-19.343-1.561-1.651-3.207-3.393-4.954-5.22l-0.065-0.068-0.053-0.077c-0.522-0.756-1.232-1.266-1.519-1.404-0.15 0.017-0.228 0.059-0.263 0.090 0.142 1.229 2.572 5.308 4.723 8.917 4.027 6.761 9.040 15.175 9.128 20.185 0.131 7.512-6.477 12.675-12.732 12.784-15.436 0.269-36.847-24.093-52.518-41.952 1.877 3.404 3.979 6.806 6.042 10.144 4.986 8.068 9.292 15.036 9.383 20.286 0.106 6.062-5.303 11.476-11.573 11.586-7.698 0.134-9.112-5.539-10.36-10.544-1.162-6.127-5.945-13.937-10.374-20.987l-0.656-0.605c-21.491-19.83-33.059-22.645-38.042-22.558-9.079 0.158-10.884 5.952-10.8 10.785 0.059 3.396 0.619 5.268 1.159 7.079 0.484 1.619 0.984 3.293 1.028 5.835 0.013 0.777-0.076 2.152-0.427 3.224 3.86 3.081 7.272 6.701 7.364 11.961 0.077 4.401-4.92 16.572-21.686 16.865-18.837 0.329-42.065-17.344-54.405-34.173-5.737-5.252-11.755-10.621-17.719-15.324-9.752-7.046-16.644-9.468-21.421-8.586-5.876 1.085-6.563 6.73-6.24 10.261 1.443 7.573 9.54 14.413 9.669 21.816 0 0 37.726 26.882 38.134 50.248 0.299 17.119-12.422 30.763-38.795 31.223-59.457 1.038-134.841-61.98-135.81-117.504-0.356-20.359 15.473-28.272 28.428-28.498 28.225-0.493 56.423 24.008 81.833 47.864 0 0-2.188-5.978-2.333-14.308-0.182-10.41 6.675-15.389 16.159-15.555 12.725-0.222 27.234 12.406 38.991 23.077l-0.003 0.005c0.378 0.324 0.76 0.646 1.136 0.971-1.159-3.185-1.768-6.157-1.815-8.879-0.117-6.711 5.192-11.867 12.351-11.992 10.298-0.18 28 12.29 41.817 24.592 1.402-14.165 13.421-20.846 24.573-21.040 10.646-0.186 22.745 5.554 38.756 18.492-1.839-3.646-3.242-7.329-3.297-10.475-0.119-6.807 5.172-12.652 11.553-12.763 5.278-0.092 8.030 3.657 12.59 9.868 1.143 1.557 2.438 3.322 3.922 5.23 15.641 19.828 39.825 43.968 45.744 43.865 0.923-0.016 1.556-0.672 1.54-1.596-0.079-4.513-7.774-18.993-14.891-30.537-0.34-0.561-0.653-1.070-0.944-1.544-2.173-3.54-3.265-5.316-3.319-8.402-0.093-5.318 4.322-9.889 9.639-9.982 5.496-0.096 10.484 5.355 14.884 10.164 0.784 0.857 1.551 1.695 2.297 2.475 14.186 16.43 20.042 23.212 22.695 23.166 0.474-0.008 1.163-0.644 1.14-1.981-0.044-2.51-0.857-6.315-1.798-10.72-1.313-6.145-2.948-13.793-3.073-20.985-0.355-20.351 14.461-31.26 29.281-31.519 6.156-0.108 11.877 2.627 14.321 3.795 0.76 0.364 3.042 1.457 3.075 3.361 0.028 1.643-1.057 2.766-2.7 2.795zM208.107 453.675c-22.677-22.336-52.057-42.457-69.937-40.72-8.021 1.158-12.666 8.531-12.422 22.496 2.46 50.602 77.277 96.965 112.395 97.052 14.923-0.26 25.507-6.973 25.307-18.445-0.381-21.841-31.722-47.333-31.722-47.333-0.844 2.221-3.217 5.353-6.085 5.403s-12.822-13.9-17.536-18.452zM323.217 487.271c0.613-0.011 1.21-0.038 1.79-0.081-0.58 0.043-1.177 0.070-1.79 0.081-0.627 0.011-1.26 0.001-1.9-0.030 0.639 0.031 1.272 0.041 1.9 0.030zM314.259 446.217c-0.898-0.818-1.81-1.636-2.735-2.451 0.925 0.815 1.838 1.633 2.735 2.451v0zM333.897 464.34c-1.194 0.575-2.778 0.816-4.001 0.837-3.487 0.061-8.478-4.862-13.762-10.074-0.876-0.864-1.747-1.723-2.598-2.545-16.962-15.958-27.27-21.55-30.94-21.486-1.737 0.030-2.334 1.097-2.318 2.001 0.196 11.252 28.891 42.667 49.404 42.309 4.606-0.080 6.627-2.48 6.586-4.823-0.039-2.217-0.632-3.83-2.371-6.22zM396.813 476.567c-0.172-0.908-0.419-1.847-0.73-2.813 0.311 0.966 0.558 1.905 0.73 2.813 0.079 0.317 0.158 0.634 0.239 0.947-0.080-0.314-0.159-0.629-0.239-0.947zM465.316 479.179c-0.465 1.043-1.087 1.996-1.827 2.839 0.74-0.844 1.362-1.796 1.827-2.839zM446.898 484.436c0.78 0.326 1.55 0.609 2.31 0.847 1.898 0.594 3.727 0.901 5.467 0.871 0.69-0.012 1.379-0.089 2.056-0.226-0.678 0.137-1.367 0.213-2.056 0.226-1.74 0.030-3.569-0.277-5.467-0.871-0.759-0.237-1.53-0.521-2.31-0.847zM716.791 505.911c6.733-0.117 14.255 7.147 14.372 13.88 0.096 5.501-3.62 9.877-8.461 9.961-5.188 0.091-14.261-7.509-14.4-15.449-0.082-4.716 4.414-8.32 8.488-8.392zM925.049 430.062c-0.961 0.017-1.756-0.544-2.597-1.138-0.257-0.181-0.533-0.376-0.836-0.571l-0.036-0.023-0.035-0.026c-3.368-2.527-7.42-3.939-11.117-3.874-4.674 0.082-6.633 2.111-6.552 6.785 0.084 4.841 1.914 10.795 3.683 16.554 1.787 5.817 3.475 11.311 3.555 15.896 0.121 6.913-4.114 11.456-10.788 11.572-17.099 0.299-40.972-21.761-51.941-36.467 0.752 5.618 1.641 10.612 3.236 17.146 32.708 36.778 70.201 81.503 70.554 101.752 0.152 8.693-4.719 18.138-15.773 18.331-13.148 0.229-29.457-14.896-44.745-41.498-14.825-25.797-26.119-58.464-30.253-87.479-12.050-10.27-24.864-15.801-39.114-16.873 0.122 0.922 0.138 1.858 0.152 2.62 0.097 5.58-1.883 10.631-3.799 15.516-1.861 4.746-3.619 9.229-3.535 14.048 0.042 2.389 3.124 3.989 6.386 5.683 3.709 1.926 7.914 4.108 7.986 8.196 0.085 4.875-2.93 9.865-8.856 9.968-4.134 0.072-7.993-4.774-13.833-12.109-1.741-2.187-3.715-4.666-5.866-7.213-6.358-7.29-11.283-12.045-17.517-18.066-19.274-17.392-35.706-26.491-47.492-26.285-6.416 0.112-9.755 3.156-9.656 8.801 0.12 6.886 4.228 14.032 8.201 20.943 3.754 6.531 7.3 12.7 7.4 18.425 0.107 6.14-5.813 12.271-11.952 12.378-4.493 0.078-8.39-1.586-11.381-3.177l-0.597-0.276c-16.167-7.919-39.588-25.91-62.79-48.217-4.607 3.778-9.697 6.686-15.473 8.838 9.79 6.093 27.818 19.027 28.040 31.748 0.102 5.851-4.439 12.247-11.952 12.378-4.076 0.071-7.428-1.127-10.242-2.541l0.003 0.159-2.279-1.4c-0.897-0.516-1.816-1.071-2.732-1.632l-0.552-0.338v-0.005c-6.255-3.636-15.519-8.219-25.645-8.042-3.809 0.067-5.373 2.066-7.354 4.596-2.426 3.1-5.174 6.612-12.465 6.74-3.056 0.053-7.488-1.91-9.74-4.268-20.795-4.691-44.149-24.992-44.506-45.418-0.19-10.892 6.759-17.781 18.134-17.98 22.868-0.399 46.8 25.555 50.913 47.493 17.287 1.686 26.437 7.004 34.299 12.335 0.522 0.193 0.989 0.287 1.392 0.28 0.57-0.010 1.162-0.845 1.135-2.373-0.109-6.233-7.826-20.286-22.034-30.46-4.811-3.865-5.671-5.325-5.709-7.518-0.033-1.884 1.297-3.132 3.397-3.2 9.313-1.394 16.847-5.176 21.867-10.964-26.567-28.744-42.601-57.177-42.933-76.19-0.195-11.15 7.945-23.296 26.276-23.616 18.356-0.32 45.887 20.405 46.682 65.908 0.289 16.563-4.337 30.365-13.753 41.044 19.389 19.345 38.927 35.214 54.085 43.95l-0.001-0.081 1.72 0.821c0.859 0.41 2.413 1.011 3.024 1.001 0.923-0.016 1.556-0.672 1.54-1.596-0.048-2.726-2.628-7.022-5.617-11.996-4.543-7.562-10.196-16.973-10.364-26.58-0.203-11.618 8.843-18.995 23.608-19.253 20.693-0.361 41.608 15.798 57.708 30.267l0.018-0.022 0.94 0.859 15.686 14.803c0.155-4.413 0.085-8.398 0.018-12.272-0.1-5.724-0.526-11.187-1.302-16.659-1.918 0.381-3.783 0.81-5.597 1.228-4.39 1.010-8.536 1.965-12.566 2.035-6.327 0.11-9.87-3.173-9.976-9.246-0.136-7.799 7.146-16.219 20.91-16.459 13.948-0.244 24.159 5.9 27.502 16.483 14.946 1.293 27.497 6.091 39.208 15.013-0.498-4.89-0.789-9.654-0.869-14.197-0.152-8.713 3.513-14.192 9.565-14.298 3.021-0.053 4.331 3.199 5.718 6.642 0.546 1.354 1.11 2.755 1.804 4.083 11.105 23.188 33.388 40.368 42.427 40.211 2.081-0.036 3.117-1.11 3.081-3.193-0.078-4.449-2.301-10.154-4.451-15.672-2.293-5.885-4.665-11.97-4.755-17.135-0.158-9.059 6.209-15.025 16.22-15.199 9.51-0.166 17.339 5.855 24.543 12.036 0.484 0.465 0.879 0.827 1.231 1.151 1.371 1.26 2.361 2.17 2.386 3.592 0.028 1.593-0.941 2.766-2.306 2.79zM910.12 564.155c2.771-0.048 4.67-2.179 4.618-5.181-0.254-14.541-21.157-45.925-60.514-90.898 15.71 48.729 45.049 96.268 55.896 96.078zM536.383 423.11c-4.425 0.077-6.617 3.020-6.517 8.746 0.215 12.304 13.097 32.653 25.84 36.94 1.328-3.275 4.441-7.025 13.835-7.404 0.075-0.526 0.064-1.15 0.057-1.579-0.275-15.725-21.424-36.909-33.214-36.704zM617.297 471.933v0c-0.017-0.993-0.2-2.131-0.54-3.381 0.34 1.25 0.523 2.388 0.54 3.381zM592.1 332.652c-7.273 0.127-12.471 4.838-12.36 11.203 0.302 17.306 14.828 44.178 37.992 70.382 4.701-7.77 6.889-17.331 6.682-29.166-0.639-36.589-16.69-52.692-32.314-52.419zM759.635 419.605c-3.709 0.065-8.198 2.497-8.15 5.243 0.027 1.561 0.964 2.337 2.786 2.305 3.023-0.053 6.228-0.739 9.328-1.403 1.849-0.396 3.621-0.775 5.347-1.029-2.236-3.825-6.285-5.168-9.311-5.115z" />
<glyph unicode="&#xe903;" glyph-name="aamozishmonogram" d="M991.987 362.296c-52.779-41.802-83.091-48.544-97.559-48.292-31.834 0.556-38.163 20.87-37.867 37.814 0.208 11.908 2.17 18.472 4.065 24.82 1.695 5.677 3.449 11.548 3.605 20.459 0.048 2.725-0.267 7.546-1.497 11.303 13.536 10.801 25.499 23.497 25.821 41.94 0.269 15.43-17.25 58.107-76.037 59.134-66.049 1.153-147.492-60.812-190.761-119.821-20.114-18.415-41.216-37.242-62.128-53.729-34.194-24.706-58.356-33.198-75.109-30.105-20.603 3.805-23.013 23.597-21.879 35.979 5.058 26.552 33.449 50.536 33.902 76.494 0 0 132.28 94.255 133.71 176.186 1.048 60.025-43.557 107.864-136.028 109.477-208.473 3.638-472.792-217.323-476.19-412.006-1.246-71.383 54.254-99.131 99.679-99.924 98.966-1.727 197.838 84.181 286.931 167.828 0 0-7.67-20.961-8.18-50.169-0.637-36.499 23.404-53.961 56.657-54.541 44.619-0.779 95.49 43.499 136.716 80.915l-0.010 0.017c1.325 1.137 2.664 2.264 3.983 3.404-4.065-11.167-6.2-21.591-6.366-31.132-0.411-23.532 18.206-41.608 43.306-42.046 36.108-0.63 98.178 43.092 146.623 86.227 4.915-49.669 47.057-73.092 86.163-73.774 37.329-0.652 79.749 19.475 135.891 64.837 15.134 13.2 0.383 24.541-7.441 18.704zM408.837 387.542c-79.514-78.316-182.529-148.869-245.221-142.777-28.123 4.062-44.41 29.913-43.556 78.88 8.624 177.425 270.959 339.989 394.093 340.294 52.325-0.913 89.435-24.449 88.732-64.674-1.337-76.58-111.225-165.967-111.225-165.967-2.96 7.788-11.278 18.768-21.336 18.944s-44.957-48.738-61.487-64.7zM812.447 505.341c2.149-0.038 4.242-0.133 6.276-0.283-2.034 0.149-4.127 0.244-6.276 0.282-2.198 0.038-4.42 0.003-6.66-0.104 2.24 0.107 4.461 0.143 6.66 0.104zM781.037 361.392c-3.148-2.869-6.347-5.738-9.591-8.594 3.244 2.856 6.443 5.725 9.591 8.595v-0.001zM835.865 427.872c-12.226 0.213-29.727-17.048-48.253-35.323-3.073-3.030-6.125-6.040-9.109-8.923-59.473-55.955-95.617-75.56-108.486-75.335-6.089 0.106-8.184 3.845-8.13 7.015 0.689 39.454 101.3 149.604 173.228 148.349 16.151-0.282 23.235-8.697 23.092-16.911-0.136-7.772-2.217-13.428-8.312-21.807-4.187 2.016-9.739 2.861-14.029 2.936z" />
<glyph unicode="&#xe904;" glyph-name="compass1" d="M800 448c0-159.066-128.934-288-288-288s-288 128.934-288 288 128.934 288 288 288 288-128.934 288-288zM571.742 604.952l-119.198-113.554c-3.764-3.594-6.534-8.226-7.83-13.43l-0.044-0.198-38.742-160.002c-6.602-27.236 26.444-45.666 46.314-26.73l119.194 113.554c3.765 3.594 6.534 8.226 7.83 13.43l0.043 0.198 38.742 160.002c6.53 26.946-26.228 45.862-46.314 26.73zM512 485.168c-20.526 0-37.168-16.642-37.168-37.168s16.642-37.168 37.168-37.168 37.168 16.642 37.168 37.168-16.642 37.168-37.168 37.168z" />
<glyph unicode="&#xe905;" glyph-name="globe1" d="M605.478 559.478c-16.832 103.698-56.554 176.522-102.77 176.522s-85.938-72.81-102.77-176.522h205.542zM391.23 448c0-25.784 1.386-50.522 3.834-74.322h215.19c2.432 23.814 3.834 48.546 3.834 74.322s-1.386 50.522-3.834 74.322h-215.19c-2.432-23.814-3.834-48.546-3.834-74.322zM768.302 559.478c-33.21 78.858-100.458 139.816-183.478 164.432 28.338-39.258 47.846-98.368 58.062-164.432h125.416zM420.492 723.922c-82.922-24.616-150.276-85.59-183.366-164.432h125.416c10.098 66.078 29.61 125.19 57.942 164.432zM780.722 522.322h-133.2c2.432-24.39 3.834-49.354 3.834-74.322s-1.386-49.938-3.834-74.322h133.078c6.39 23.814 9.99 48.546 9.99 74.322s-3.6 50.522-9.876 74.322zM354.062 448c0 24.966 1.386 49.938 3.834 74.322h-133.2c-6.276-23.814-9.99-48.546-9.99-74.322s3.722-50.522 9.99-74.322h133.078c-2.322 24.39-3.722 49.354-3.722 74.322zM399.938 336.522c16.832-103.698 56.554-176.522 102.77-176.522s85.938 72.81 102.77 176.522h-205.542zM584.924 172.078c82.922 24.616 150.276 85.59 183.478 164.432h-125.416c-10.216-66.078-29.724-125.19-58.062-164.432zM237.122 336.522c33.21-78.858 100.458-139.816 183.478-164.432-28.338 39.258-47.846 98.368-58.062 164.432h-125.416z" />
<glyph unicode="&#xe906;" glyph-name="newsletter1" d="M737.773 507.762c3.575 2.846 8.896 0.187 8.896-4.304v-187.454c0-24.296-19.704-44-44-44h-381.333c-24.296 0-44 19.704-44 44v187.361c0 4.587 5.225 7.15 8.896 4.304 20.537-15.95 47.754-36.204 141.254-104.136 19.346-14.113 51.974-43.812 84.512-43.636 32.725-0.275 66 30.063 84.604 43.636 93.5 67.924 120.635 88.274 141.161 104.224zM512 389.338c21.263-0.363 51.886 26.763 67.286 37.95 121.646 88.274 130.9 95.974 158.95 117.974 5.313 4.125 8.437 10.546 8.437 17.325v17.413c0 24.296-19.704 44-44 44h-381.333c-24.296 0-44-19.704-44-44v-17.413c0-6.787 3.113-13.104 8.437-17.325 28.050-21.904 37.304-29.7 158.95-117.974 15.4-11.187 46.012-38.312 67.286-37.95z" />
<glyph unicode="&#xe907;" glyph-name="location1" d="M476.572 156.262c-172.541 250.138-204.576 275.806-204.576 367.738 0 125.915 102.086 228 228 228s228-102.086 228-228c0-91.932-32.022-117.592-204.576-367.738-11.322-16.359-35.549-16.359-46.87 0zM500 429c52.46 0 95 42.54 95 95s-42.54 95-95 95-95-42.54-95-95 42.54-95 95-95z" />
<glyph unicode="&#xe908;" glyph-name="external1" d="M749.718 636.575v-377.154c0-28.398-23.026-51.436-51.436-51.436h-377.154c-28.398 0-51.436 23.026-51.436 51.436v377.154c0 28.398 23.026 51.436 51.436 51.436h377.154c28.398 0 51.436-23.026 51.436-51.436zM655.436 619.436h-119.968c-22.84 0-34.367-27.706-18.186-43.904l34.276-34.277-209.496-209.496c-5.025-5.025-5.025-13.156 0-18.186l33.25-33.25c5.025-5.025 13.156-5.025 18.186 0l209.494 209.494 34.277-34.277c16.096-16.096 43.904-4.79 43.904 18.186v119.984c0 14.206-11.506 25.718-25.718 25.718z" />
<glyph unicode="&#xe909;" glyph-name="sufinama_mono" d="M533.66 618.672c-22.941 57.538 0 104.722 0 104.722l236.602 181.006-310.302-181.006c0 0-38.462-129.627 91.805-207.523 260.204-154.82-296.083-526.546-296.083-526.546s356.205 197.499 405.021 365.257c50.098 172.284-97.303 188.446-127.022 264.090zM384.978 545.613c59.481-81.141 123.158-77.586 162.261-133.822 53.343-74.982-66.901-203.968-66.901-203.968s143.846 140.601 99.225 215.604c-44.6 75.643-83.063 63.677-137.046 121.546-47.184 50.739-38.462 149.984-38.462 149.984l-149.984-93.417 100.858 39.103c-0.331 0.331-2.253-50.429 30.050-95.029zM349.739 751.833c0 0 7.44 26.496 37.181 43.319s57.538 7.44 57.538 7.44l-84.365 100.527c0 0-16.162 8.081-33.936-1.302-18.105-10.024-15.521-29.741-15.521-29.741l39.103-120.244z" />
<glyph unicode="&#xe90a;" glyph-name="blank7" d="M0.001-32.972l992.974 992.974 31.030-31.030-992.974-992.974-31.030 31.030z" />
<glyph unicode="&#xe90b;" glyph-name="blank8" d="M0.001-32.972l992.974 992.974 31.030-31.030-992.974-992.974-31.030 31.030z" />
<glyph unicode="&#xe90c;" glyph-name="blank9" d="M0.001-32.972l992.974 992.974 31.030-31.030-992.974-992.974-31.030 31.030z" />
<glyph unicode="&#xe90d;" glyph-name="blank10" d="M0.001-32.972l992.974 992.974 31.030-31.030-992.974-992.974-31.030 31.030z" />
<glyph unicode="&#xe90e;" glyph-name="blank11" d="M0.001-32.972l992.974 992.974 31.030-31.030-992.974-992.974-31.030 31.030z" />
<glyph unicode="&#xe90f;" glyph-name="blank12" d="M0.001-32.972l992.974 992.974 31.030-31.030-992.974-992.974-31.030 31.030z" />
<glyph unicode="&#xe910;" glyph-name="blank13" d="M0.001-32.972l992.974 992.974 31.030-31.030-992.974-992.974-31.030 31.030z" />
<glyph unicode="&#xe911;" glyph-name="blank14" d="M0.001-32.972l992.974 992.974 31.030-31.030-992.974-992.974-31.030 31.030z" />
<glyph unicode="&#xe912;" glyph-name="blank15" d="M0.001-32.972l992.974 992.974 31.030-31.030-992.974-992.974-31.030 31.030z" />
<glyph unicode="&#xe913;" glyph-name="blank16" d="M0.001-32.972l992.974 992.974 31.030-31.030-992.974-992.974-31.030 31.030z" />
<glyph unicode="&#xe914;" glyph-name="blank17" d="M0.001-32.972l992.974 992.974 31.030-31.030-992.974-992.974-31.030 31.030z" />
<glyph unicode="&#xe915;" glyph-name="blank18" d="M0.001-32.972l992.974 992.974 31.030-31.030-992.974-992.974-31.030 31.030z" />
<glyph unicode="&#xe916;" glyph-name="blank19" d="M0.001-32.972l992.974 992.974 31.030-31.030-992.974-992.974-31.030 31.030z" />
<glyph unicode="&#xe917;" glyph-name="blank20" d="M0.001-32.972l992.974 992.974 31.030-31.030-992.974-992.974-31.030 31.030z" />
<glyph unicode="&#xe918;" glyph-name="blank21" d="M0.001-32.972l992.974 992.974 31.030-31.030-992.974-992.974-31.030 31.030z" />
<glyph unicode="&#xe919;" glyph-name="blank22" d="M0.001-32.972l992.974 992.974 31.030-31.030-992.974-992.974-31.030 31.030z" />
<glyph unicode="&#xe91a;" glyph-name="blank23" d="M0.001-32.972l992.974 992.974 31.030-31.030-992.974-992.974-31.030 31.030z" />
<glyph unicode="&#xe91b;" glyph-name="blank24" d="M0.001-32.972l992.974 992.974 31.030-31.030-992.974-992.974-31.030 31.030z" />
<glyph unicode="&#xe91c;" glyph-name="blank25" d="M0.001-32.972l992.974 992.974 31.030-31.030-992.974-992.974-31.030 31.030z" />
<glyph unicode="&#xe91d;" glyph-name="blank26" d="M0.001-32.972l992.974 992.974 31.030-31.030-992.974-992.974-31.030 31.030z" />
<glyph unicode="&#xe91e;" glyph-name="blank27" d="M0.001-32.972l992.974 992.974 31.030-31.030-992.974-992.974-31.030 31.030z" />
<glyph unicode="&#xe91f;" glyph-name="blank28" d="M0.001-32.972l992.974 992.974 31.030-31.030-992.974-992.974-31.030 31.030z" />
<glyph unicode="&#xe920;" glyph-name="blank29" d="M0.001-32.972l992.974 992.974 31.030-31.030-992.974-992.974-31.030 31.030z" />
<glyph unicode="&#xe922;" glyph-name="grid_view" d="M264.076 682.665h208.718c4.458 0 8.070-3.613 8.070-8.070v-208.718c0-4.458-3.613-8.070-8.070-8.070h-208.718c-4.458 0-8.070 3.613-8.070 8.070v208.718c0 4.458 3.613 8.070 8.070 8.070zM551.209 682.665h208.718c4.458 0 8.070-3.613 8.070-8.070v-208.718c0-4.458-3.613-8.070-8.070-8.070h-208.718c-4.458 0-8.070 3.613-8.070 8.070v208.718c0 4.458 3.613 8.070 8.070 8.070zM264.076 395.534h208.718c4.458 0 8.070-3.613 8.070-8.070v-208.718c0-4.458-3.613-8.070-8.070-8.070h-208.718c-4.458 0-8.070 3.613-8.070 8.070v208.718c0 4.458 3.613 8.070 8.070 8.070zM551.209 395.534h208.718c4.458 0 8.070-3.613 8.070-8.070v-208.718c0-4.458-3.613-8.070-8.070-8.070h-208.718c-4.458 0-8.070 3.613-8.070 8.070v208.718c0 4.458 3.613 8.070 8.070 8.070z" />
<glyph unicode="&#xe923;" glyph-name="list_view" d="M96.668 690.668h105.601v-105.607h-105.601v105.607zM286.748 690.668h633.597v-105.607h-633.597c0 0 0 105.607 0 105.607zM96.668 479.468h105.601v-105.601h-105.601v105.601zM286.748 479.468h633.597v-105.601h-633.597c0 0 0 105.601 0 105.601zM96.668 268.267h105.601v-105.607h-105.601v105.607zM286.748 268.267h633.597v-105.607h-633.597c0 0 0 105.607 0 105.607z" />
<glyph unicode="&#xe924;" glyph-name="Loop" d="M384 554.667h256.003v-76.8l102.403 102.403-102.403 102.403v-76.8h-307.2v-153.6h51.199v102.403zM640 298.667h-256.003v76.8l-102.403-102.403 102.403-102.403v76.8h307.2v153.6h-51.199v-102.403z" />
<glyph unicode="&#xe925;" glyph-name="order_by" d="M509.858 682.671l146.288-219.428h-292.56zM509.858 170.663l146.288 219.428h-292.56z" />
<glyph unicode="&#xe926;" glyph-name="blank35" d="M507.712 960l292.576-438.848h-585.12zM507.712-64l292.576 438.848h-585.12z" />
<glyph unicode="&#xe927;" glyph-name="Login" d="M716.141 398.518h-326.117c-15.545 0-28.149 12.604-28.149 28.149s12.604 28.149 28.149 28.149h326.117l-36.395 36.393c-10.992 10.992-10.992 28.815 0 39.808s28.815 10.992 39.808 0l84.439-84.437c0.657-0.659 1.283-1.349 1.869-2.071 0.253-0.316 0.481-0.645 0.72-0.969 0.308-0.412 0.627-0.812 0.916-1.249 0.267-0.396 0.495-0.803 0.729-1.201 0.233-0.387 0.471-0.767 0.684-1.159 0.221-0.412 0.407-0.836 0.608-1.255 0.197-0.411 0.399-0.812 0.577-1.237 0.171-0.411 0.305-0.831 0.456-1.249 0.163-0.452 0.335-0.899 0.475-1.353 0.127-0.419 0.217-0.836 0.325-1.26 0.116-0.467 0.249-0.931 0.343-1.407 0.096-0.489 0.152-0.977 0.223-1.468 0.059-0.423 0.143-0.833 0.181-1.255 0.088-0.907 0.137-1.824 0.141-2.736 0-0.019 0.003-0.031 0.003-0.043s-0.003-0.031-0.003-0.043c-0.003-0.912-0.048-1.824-0.141-2.736-0.043-0.423-0.119-0.824-0.175-1.241-0.073-0.493-0.129-0.993-0.229-1.48-0.093-0.471-0.223-0.931-0.337-1.395-0.111-0.428-0.203-0.856-0.331-1.279-0.137-0.455-0.305-0.889-0.464-1.333-0.147-0.427-0.292-0.848-0.46-1.267-0.171-0.412-0.371-0.808-0.563-1.215-0.209-0.428-0.399-0.864-0.619-1.283-0.209-0.387-0.441-0.749-0.664-1.121-0.241-0.415-0.483-0.836-0.749-1.237-0.271-0.411-0.581-0.797-0.873-1.191-0.255-0.337-0.495-0.691-0.767-1.023-0.56-0.684-1.159-1.339-1.775-1.964-0.031-0.031-0.052-0.064-0.081-0.093l-84.441-84.444c-5.495-5.491-12.701-8.245-19.903-8.245-7.201 0.003-14.409 2.748-19.903 8.245-10.992 10.992-10.992 28.815-0.003 39.808l36.395 36.401zM239.903 680.002h356.544c15.545 0 28.149-12.604 28.149-28.149v-112.593c0-15.545-12.604-28.149-28.149-28.149s-28.149 12.604-28.149 28.149v84.441h-300.247v-394.077h300.247v84.444c0 15.545 12.604 28.149 28.149 28.149s28.149-12.604 28.149-28.149v-112.593c0-15.545-12.604-28.149-28.149-28.149h-356.544c-15.545 0-28.149 12.604-28.149 28.149v450.372c0 15.545 12.604 28.149 28.149 28.149z" />
<glyph unicode="&#xe928;" glyph-name="hamburger" d="M128 672v-64h768v64h-768zM128 480v-64h768v64h-768zM128 288v-64h768v64h-768z" />
<glyph unicode="&#xe929;" glyph-name="more" d="M320 512.001c-35.346 0-64-28.654-64-64s28.654-64 64-64 64 28.654 64 64-28.654 64-64 64zM512 512.001c-35.346 0-64-28.654-64-64s28.654-64 64-64 64 28.654 64 64-28.654 64-64 64zM704 512.001c-35.346 0-64-28.654-64-64s28.654-64 64-64 64 28.654 64 64-28.654 64-64 64z" />
<glyph unicode="&#xe92a;" glyph-name="close" d="M563.188 448l204.8 204.8-51.188 51.212-204.8-204.8-204.8 204.8-51.212-51.212 204.8-204.8-204.8-204.8 51.212-51.188 204.8 204.8 204.8-204.8 51.188 51.188z" />
<glyph unicode="&#xe92b;" glyph-name="back" d="M256 448l256-256 44.8 44.8-179.2 179.2h390.4v64h-390.4l179.2 179.2-44.8 44.8z" />
<glyph unicode="&#xe92c;" glyph-name="search" d="M761.731 207.030l-123.089 123.089c30.511 37.198 48.901 84.846 48.901 136.777 0 119.118-96.653 215.771-215.771 215.771-119.223 0-215.772-96.653-215.772-215.772s96.548-215.772 215.772-215.772c51.932 0 99.474 18.286 136.673 48.797l123.089-122.985c8.359-8.359 21.838-8.359 30.197 0 8.359 8.255 8.359 21.839 0 30.093zM471.772 294.070c-95.399 0-172.931 77.532-172.931 172.826s77.532 172.931 172.931 172.931c95.295 0 172.931-77.636 172.931-172.931s-77.636-172.826-172.931-172.826z" />
<glyph unicode="&#xe92d;" glyph-name="waffle" d="M255.999 704.001v-128h128v128h-128zM447.999 704.001v-128h128v128h-128zM639.999 704.001v-128h128v128h-128zM255.999 512.001v-128h128v128h-128zM447.999 512.001v-128h128v128h-128zM639.999 512.001v-128h128v128h-128zM255.999 320.001v-128h128v128h-128zM447.999 320.001v-128h128v128h-128zM639.999 320.001v-128h128v128h-128z" />
<glyph unicode="&#xe92e;" glyph-name="user" d="M511.999 704.001c-140.804 0-256-115.196-256-256s115.196-256 256-256 256 115.196 256 256-115.196 256-256 256zM511.999 627.209c43.516 0 76.808-33.276 76.808-76.808s-33.292-76.792-76.808-76.792-76.792 33.276-76.792 76.792 33.276 76.808 76.792 76.808zM511.999 263.681c-63.996 0-120.324 33.276-153.6 81.92 0 51.2 102.4 79.364 153.6 79.364s153.6-28.164 153.6-79.364c-33.276-48.644-89.604-81.92-153.6-81.92z" />
<glyph unicode="&#xe92f;" glyph-name="arrowup" d="M320.007 288.010l191.993 191.993 191.993-191.993 64.007 64.007-256 255.973-256-256 64.007-63.98z" />
<glyph unicode="&#xe930;" glyph-name="arrowright" d="M352.010 639.993l191.993-191.993-191.993-191.993 64.007-64.007 255.973 256-256 256-63.98-64.007z" />
<glyph unicode="&#xe931;" glyph-name="arrowdown" d="M703.993 607.99l-191.993-191.993-191.993 191.993-64.007-63.98 256-256 256 256-64.007 63.98z" />
<glyph unicode="&#xe932;" glyph-name="arrowleft" d="M671.99 256.007l-191.993 191.993 191.993 191.993-63.98 64.007-256-256 256-256 63.98 64.007z" />
<glyph unicode="&#xe933;" glyph-name="arrowthinup" d="M511.931 593.212c9.496 0.010 18.608-3.748 25.336-10.449l220.104-218.875c13.993-13.742 14.196-36.226 0.453-50.219-0.15-0.152-0.301-0.304-0.453-0.453-14.029-13.906-36.644-13.906-50.672 0l-194.768 193.948-194.768-193.948c-14.029-13.906-36.644-13.906-50.672 0-13.917 13.819-13.997 36.303-0.179 50.221 0.059 0.060 0.119 0.119 0.179 0.179l220.104 219.148c6.728 6.701 15.84 10.459 25.336 10.449z" />
<glyph unicode="&#xe934;" glyph-name="arrowthinright" d="M657.213 448.069c0.010-9.496-3.748-18.608-10.449-25.336l-218.875-220.104c-13.742-13.993-36.226-14.196-50.219-0.453-0.152 0.15-0.304 0.301-0.453 0.453-13.906 14.029-13.906 36.644 0 50.672l193.948 194.768-193.948 194.768c-13.906 14.029-13.906 36.644 0 50.672 13.819 13.917 36.303 13.997 50.221 0.179 0.060-0.059 0.119-0.119 0.179-0.179l219.148-220.104c6.7-6.728 10.458-15.84 10.449-25.336z" />
<glyph unicode="&#xe935;" glyph-name="arrowthindown" d="M512.069 302.787c-9.496-0.010-18.608 3.748-25.336 10.449l-220.104 218.875c-13.993 13.742-14.196 36.226-0.453 50.219 0.15 0.152 0.301 0.304 0.453 0.453 14.029 13.906 36.644 13.906 50.672 0l194.768-193.948 194.768 193.948c14.029 13.906 36.644 13.906 50.672 0 13.917-13.819 13.997-36.303 0.179-50.221-0.059-0.060-0.119-0.119-0.179-0.179l-220.104-219.148c-6.729-6.7-15.84-10.458-25.336-10.449z" />
<glyph unicode="&#xe936;" glyph-name="arrowthinleft" d="M366.788 447.931c-0.010 9.496 3.748 18.608 10.449 25.336l218.875 220.104c13.742 13.993 36.226 14.196 50.219 0.453 0.152-0.15 0.304-0.301 0.453-0.453 13.906-14.029 13.906-36.644 0-50.672l-193.948-194.768 193.948-194.768c13.906-14.029 13.906-36.644 0-50.672-13.819-13.917-36.303-13.997-50.221-0.179-0.060 0.059-0.119 0.119-0.179 0.179l-219.148 220.104c-6.701 6.729-10.459 15.84-10.449 25.336z" />
<glyph unicode="&#xe937;" glyph-name="paperplane" d="M214.691 447.95c0.666-12.176 8.93-22.611 20.629-26.049l217.851-65.877 8-150.094c0.405-5.992 4.379-11.15 10.069-13.069 1.543-0.583 3.18-0.875 4.83-0.86 4.271-0.027 8.344 1.796 11.17 5l76.997 85.227 109.165-75.517c4.852-3.415 10.646-5.239 16.579-5.22 13.801 0.076 25.676 9.779 28.499 23.289l90.596 461.521c1.054 5.339-0.9 10.827-5.090 14.3-4.19 3.481-9.959 4.366-14.999 2.3l-556.816-226.441c-11.21-4.918-18.181-16.288-17.479-28.509zM488.829 243.188l-5 94.696 55.798-38.568-50.798-56.128zM689.451 231.689l-198.682 137.484 278.619 269.349-79.937-406.833zM738.819 650.412l-275.449-266.389-217.621 65.747 493.070 200.642z" />
<glyph unicode="&#xe938;" glyph-name="calendar" d="M691.192 652.8h-25.592v51.2h-51.2v-51.2h-204.8v51.2h-51.2v-51.2h-25.608c-28.164 0-51.2-23.036-51.2-51.2v-358.4c0-28.164 23.036-51.2 51.2-51.2h358.4c28.164 0 51.2 23.036 51.2 51.2v358.4c0 28.164-23.036 51.2-51.2 51.2zM691.192 243.2h-358.4v281.608h358.4v-281.608zM383.992 473.608h128.008v-128.008h-128.008v128.008z" />
<glyph unicode="&#xe939;" glyph-name="location" d="M511.999 704.001c-99.844 0-179.208-79.364-179.208-179.208 0-133.12 179.208-332.808 179.208-332.808s179.208 199.688 179.208 332.808c0 99.844-79.364 179.208-179.208 179.208zM511.999 460.797c-35.848 0-63.996 28.164-63.996 63.996 0 35.848 28.164 63.996 63.996 63.996s63.996-28.164 63.996-63.996c0-35.832-28.164-63.996-63.996-63.996z" />
<glyph unicode="&#xe93a;" glyph-name="sms" d="M716.799 704.001h-409.6c-28.164 0-51.2-23.036-51.2-51.2v-460.8l102.4 102.4h358.4c28.164 0 51.2 23.036 51.2 51.2v307.2c0 28.164-23.036 51.2-51.2 51.2zM435.207 473.609h-51.2v51.2h51.2v-51.2zM537.607 473.609h-51.2v51.2h51.2v-51.2zM640.007 473.609h-51.2v51.2h51.2v-51.2z" />
<glyph unicode="&#xe93b;" glyph-name="edit" d="M256.009 300.089v-108.080h108.080l312.898 315.738-108.098 108.080-312.88-315.738zM759.471 590.213c11.378 11.378 11.378 28.454 0 39.813l-65.427 65.445c-11.378 11.378-28.454 11.378-39.831 0l-51.191-51.209 108.080-108.098 48.369 54.049z" />
<glyph unicode="&#xe93c;" glyph-name="camera" d="M196.587 547.323v-278.337c0-42.484 34.503-76.987 76.987-76.987h476.854c42.484 0 76.987 34.503 76.987 76.987v278.337c0 40.424-32.829 73.253-73.253 73.253h-102.477l-2.447 10.686c-9.913 42.871-47.634 72.738-91.663 72.738h-91.277c-43.9 0-81.621-29.868-91.663-72.738l-2.446-10.686h-102.349c-40.424 0-73.253-32.957-73.253-73.253v0zM384.805 589.035c7.338 0 13.646 5.021 15.32 12.23l5.278 22.916c6.695 28.451 31.67 48.277 60.894 48.277h91.277c29.224 0 54.2-19.826 60.894-48.277l5.278-22.916c1.674-7.081 7.982-12.23 15.32-12.23h114.965c23.045 0 41.712-18.667 41.712-41.712v-278.337c0-25.104-20.341-45.445-45.445-45.445h-476.725c-25.104 0-45.445 20.341-45.445 45.445v278.337c0 23.045 18.667 41.712 41.712 41.712h114.965zM324.425 521.704c0-11.661-9.453-21.113-21.113-21.113s-21.113 9.453-21.113 21.113c0 11.661 9.453 21.113 21.113 21.113s21.113-9.453 21.113-21.113zM512 272.977c72.996 0 132.474 59.478 132.474 132.474s-59.478 132.474-132.474 132.474-132.474-59.349-132.474-132.474 59.478-132.474 132.474-132.474zM512 506.384c55.616 0 100.932-45.317 100.932-100.932s-45.317-100.932-100.932-100.932-100.932 45.317-100.932 100.932c0 55.615 45.316 100.932 100.932 100.932v0z" />
<glyph unicode="&#xe93d;" glyph-name="replay" d="M512 601.6v102.4l-128.008-127.992 128.008-128.008v102.4c84.476 0 153.6-69.124 153.6-153.6s-69.124-153.6-153.6-153.6c-84.476 0-153.6 69.124-153.6 153.6h-51.2c0-112.64 92.16-204.8 204.8-204.8s204.8 92.16 204.8 204.8-92.16 204.8-204.8 204.8z" />
<glyph unicode="&#xe93e;" glyph-name="lines" d="M128 704v-32h768v32h-768zM128 544v-32h768v32h-768zM128 384v-32h768v32h-768zM128 224v-32h768v32h-768z" />
<glyph unicode="&#xe93f;" glyph-name="fullscreen" d="M320.007 256.007h128.014v-64.007h-192.020v191.993h64.007v-127.986zM703.998 639.998h-128.006v63.991h191.997v-191.997h-63.991v128.006z" />
<glyph unicode="&#xe940;" glyph-name="plus" d="M480.002 704v-224.002h-224.002v-63.996h224.002v-224.002h63.996v224.002h224.002v63.996h-224.002v224.002h-63.996z" />
<glyph unicode="&#xe941;" glyph-name="minus" d="M256 479.998v-63.996h512v63.996h-512z" />
<glyph unicode="&#xe942;" glyph-name="checkbox" d="M737.007 673.007v-449.996h-450.014v449.996zM736.006 735.994h-448.011c-35.207 0-64.007-28.799-64.007-64.007v-447.993c0-35.207 28.799-64.007 64.007-64.007h448.011c35.207 0 64.007 28.799 64.007 64.007v448.011c-0.018 35.189-28.818 63.989-64.007 63.989z" />
<glyph unicode="&#xe943;" glyph-name="checked" d="M736 736h-448c-35.2 0-64-28.8-64-64v-448c0-35.2 28.8-64 64-64h448c35.2 0 64 28.8 64 64v448c0 35.2-28.8 64-64 64zM448 288l-160 160 44.8 44.8 115.2-115.2 243.2 243.2 44.8-44.8-288-288z" />
<glyph unicode="&#xe944;" glyph-name="visible" d="M512 622.546c-116.364 0-216.436-72.146-256-174.546 39.564-102.4 139.636-174.546 256-174.546s216.436 72.146 256 174.546c-39.564 102.4-139.636 174.546-256 174.546zM512 331.636c-65.164 0-116.364 51.2-116.364 116.364s51.2 116.364 116.364 116.364 116.364-51.2 116.364-116.364-51.2-116.364-116.364-116.364zM512 517.818c-39.564 0-69.818-30.254-69.818-69.818s30.255-69.818 69.818-69.818 69.818 30.255 69.818 69.818-30.255 69.818-69.818 69.818z" />
<glyph unicode="&#xe945;" glyph-name="hidden" d="M513.169 563.785c65.461 0 116.895-51.434 116.895-116.895 0-14.028-2.338-30.393-9.352-42.082l67.799-67.799c35.068 30.393 63.123 67.799 79.489 109.881-39.744 102.868-140.274 175.342-257.169 175.342-32.731 0-63.123-7.014-93.516-16.365l51.434-51.434c14.027 7.014 30.392 9.352 44.42 9.352zM279.379 626.908l63.124-63.123c-39.744-30.393-70.137-70.137-86.502-116.895 39.744-102.868 140.274-175.342 257.169-175.342 35.068 0 70.137 7.014 102.868 18.703l77.151-77.151 30.393 30.393-413.808 413.808-30.393-30.393zM407.964 498.323l35.068-35.068c0-7.014 0-11.69 0-16.365 0-39.744 30.393-70.137 70.137-70.137 4.676 0 9.352 0 16.365 2.338l35.068-35.068c-16.365-9.352-32.731-14.028-51.434-14.028-65.461 0-116.895 51.434-116.895 116.895 0 18.703 4.676 35.068 11.69 51.434zM508.493 517.027l72.475-72.475c0 2.338 0 2.338 0 4.676 0 39.744-30.393 70.137-70.137 70.137 0-2.338 0-2.338-2.338-2.338z" />
<glyph unicode="&#xe946;" glyph-name="controls" d="M224 288v-64h192v64h-192zM224 672v-64h320v64h-320zM544 160v64h256v64h-256v64h-64v-192h64zM352 544v-64h-128v-64h128v-64h64v192h-64zM800 416v64h-320v-64h320zM608 544h64v64h128v64h-128v64h-64v-192z" />
<glyph unicode="&#xe947;" glyph-name="filter" d="M448 256h128v64h-128v-64zM224 640v-64h576v64h-576zM320 416h384v64h-384v-64z" />
<glyph unicode="&#xe948;" glyph-name="sort" d="M224 256h192v64h-192v-64zM224 640v-64h576v64h-576zM224 416h384v64h-384v-64z" />
<glyph unicode="&#xe949;" glyph-name="arrowhairup" d="M501.793 579.058l-241.528-241.528c-5.687-5.687-5.687-14.807 0-20.494s14.807-5.687 20.494 0l231.228 231.228 231.228-231.228c5.687-5.687 14.807-5.687 20.494 0 2.789 2.79 4.292 6.546 4.292 10.194s-1.395 7.404-4.292 10.193l-241.528 241.528c-5.58 5.687-14.807 5.687-20.387 0.107z" />
<glyph unicode="&#xe94a;" glyph-name="arrowhairdown" d="M522.207 316.942l241.528 241.528c5.687 5.687 5.687 14.807 0 20.494s-14.807 5.687-20.494 0l-231.228-231.228-231.228 231.228c-5.687 5.687-14.807 5.687-20.494 0-2.79-2.79-4.292-6.545-4.292-10.193s1.395-7.404 4.292-10.193l241.528-241.528c5.58-5.687 14.807-5.687 20.387-0.108z" />
<glyph unicode="&#xe94b;" glyph-name="arrowhairright" d="M643.058 458.207l-241.528 241.528c-5.687 5.687-14.807 5.687-20.494 0s-5.687-14.807 0-20.494l231.228-231.228-231.228-231.228c-5.687-5.687-5.687-14.807 0-20.494 2.79-2.789 6.545-4.292 10.193-4.292s7.404 1.395 10.193 4.292l241.528 241.528c5.687 5.58 5.687 14.807 0.108 20.387z" />
<glyph unicode="&#xe94c;" glyph-name="arrowhairleft" d="M380.942 437.793l241.528-241.528c5.687-5.687 14.807-5.687 20.494 0s5.687 14.807 0 20.494l-231.228 231.228 231.228 231.228c5.687 5.687 5.687 14.807 0 20.494-2.79 2.79-6.546 4.292-10.194 4.292s-7.404-1.395-10.193-4.292l-241.528-241.528c-5.687-5.58-5.687-14.807-0.107-20.387z" />
<glyph unicode="&#xe94d;" glyph-name="voice" d="M512 368c54.4 0 96 41.6 96 96v192c0 54.4-41.6 96-96 96s-96-41.6-96-96v-192c0-54.4 41.6-96 96-96zM681.6 464c0-96-80-163.2-169.6-163.2s-169.6 67.2-169.6 163.2h-54.4c0-108.8 86.4-198.4 192-214.4v-105.6h64v105.6c105.6 16 192 105.6 192 214.4 0 0-54.4 0-54.4 0z" />
<glyph unicode="&#xe94e;" glyph-name="location_1" d="M513.575 783.906c-134.354-0.147-243.236-109.021-243.375-243.374v-0.021c0-166.368 217.586-410.874 226.933-421.332 4.011-4.473 9.807-7.287 16.267-7.287s12.248 2.801 16.239 7.262l0.021 0.021c9.345 10.473 226.561 254.967 226.561 421.332 0 0.046 0 0.105 0 0.147 0 134.13-108.551 242.891-242.604 243.234h-0.028zM513.575 418.284c-0.166-0.001-0.357-0.002-0.567-0.002-67.621 0-122.442 54.821-122.442 122.442s54.821 122.442 122.442 122.442c67.621 0 122.442-54.821 122.442-122.442 0-0.063 0-0.133 0-0.189v0.015c-0.211-67.307-54.609-121.824-121.834-122.245h-0.040z" />
<glyph unicode="&#xe94f;" glyph-name="Calendar_1" d="M733.589 666.241h-41.92v30.077c0.013 0.27 0.018 0.6 0.018 0.932 0 21.171-16.973 38.374-38.060 38.752l-0.034 0.001h-1.602c-20.969-0.518-37.78-17.626-37.78-38.68 0-0.347 0.008-0.702 0.018-1.062l-0.002 0.054v-30.077h-196.791v30.077c0.013 0.27 0.018 0.6 0.018 0.932 0 21.171-16.973 38.374-38.060 38.752l-0.034 0.001h-1.278c-21.288-0.342-38.401-17.668-38.401-39.004 0-0.234 0.004-0.481 0.011-0.706l-0.001 0.035v-30.077h-41.596c-21.288-0.342-38.401-17.668-38.401-39.004 0-0.234 0.004-0.481 0.011-0.706l-0.001 0.035v-426.874c-0.003-0.146-0.005-0.311-0.005-0.486 0-21.365 17.098-38.752 38.356-39.184l0.046-0.001h435.514c21.14 0.486 38.086 17.729 38.086 38.932 0 0.27-0.005 0.522-0.014 0.779l0.001-0.041v426.874c0.013 0.27 0.018 0.6 0.018 0.932 0 21.171-16.973 38.374-38.060 38.752l-0.034 0.001zM707.67 223.043h-383.674v323.194h383.674v-323.194zM376.16 399.996h66.24c3.402 0.171 6.077 2.97 6.077 6.39 0 0.005 0 0.010 0 0.015v-0.001 69.12c0 0.004 0 0.009 0 0.014 0 3.424-2.682 6.21-6.066 6.39l-0.018 0.001h-66.24c-3.366-0.031-6.086-2.77-6.086-6.138 0-0.090 0.003-0.18 0.010-0.27l-0.001 0.018v-69.12c-0.006-0.080-0.010-0.162-0.010-0.26 0-3.366 2.718-6.103 6.081-6.138h0.006zM482.715 399.996h66.24c3.402 0.171 6.077 2.97 6.077 6.39 0 0.005 0 0.010 0 0.015v-0.001 69.12c0 0.004 0 0.009 0 0.014 0 3.424-2.682 6.21-6.066 6.39l-0.018 0.001h-66.24c-3.366-0.031-6.086-2.77-6.086-6.138 0-0.090 0.003-0.18 0.010-0.27l-0.001 0.018v-69.12c-0.006-0.080-0.010-0.162-0.010-0.26 0-3.366 2.718-6.103 6.081-6.138h0.006zM589.271 399.996h66.24c3.366 0.031 6.086 2.77 6.086 6.138 0 0.090-0.003 0.18-0.010 0.27l0.001-0.018v69.12c0.006 0.080 0.010 0.162 0.010 0.26 0 3.366-2.718 6.103-6.081 6.138h-66.246c-3.402-0.171-6.077-2.97-6.077-6.39 0-0.005 0-0.010 0-0.015v0.001-69.12c0-0.004 0-0.009 0-0.014 0-3.424 2.682-6.21 6.066-6.39l0.018-0.001zM376.16 288.329h66.24c3.402 0.171 6.077 2.97 6.077 6.39 0 0.005 0 0.010 0 0.015v-0.001 69.437c0 0.004 0 0.009 0 0.014 0 3.424-2.682 6.21-6.066 6.39l-0.018 0.001h-66.24c-3.366-0.031-6.086-2.77-6.086-6.138 0-0.090 0.003-0.18 0.010-0.27l-0.001 0.018v-69.437c-0.006-0.080-0.010-0.162-0.010-0.26 0-3.366 2.718-6.103 6.081-6.138h0.006zM482.715 288.329h66.24c3.402 0.171 6.077 2.97 6.077 6.39 0 0.005 0 0.010 0 0.015v-0.001 69.437c0 0.004 0 0.009 0 0.014 0 3.424-2.682 6.21-6.066 6.39l-0.018 0.001h-66.24c-3.366-0.031-6.086-2.77-6.086-6.138 0-0.090 0.003-0.18 0.010-0.27l-0.001 0.018v-69.437c-0.006-0.080-0.010-0.162-0.010-0.26 0-3.366 2.718-6.103 6.081-6.138h0.006zM589.271 288.329h66.24c3.366 0.031 6.086 2.77 6.086 6.138 0 0.090-0.003 0.18-0.010 0.27l0.001-0.018v69.437c0.006 0.080 0.010 0.162 0.010 0.26 0 3.366-2.718 6.103-6.081 6.138h-66.246c-3.402-0.171-6.077-2.97-6.077-6.39 0-0.005 0-0.010 0-0.015v0.001-69.437c0-0.004 0-0.009 0-0.014 0-3.424 2.682-6.21 6.066-6.39l0.018-0.001z" />
<glyph unicode="&#xe950;" glyph-name="Filter" d="M444.233 462.96c5.485-5.936 8.84-13.917 8.84-22.658 0 0 0-0.001 0-0.001v0-247.494c0.016-9.229 7.495-16.686 16.728-16.686 4.618 0 8.803 1.877 11.832 4.909v0l68.897 78.88c8.036 6.758 13.359 16.505 14.262 27.51l0.016 0.152v152.537c0.049 8.821 3.383 16.845 8.861 22.93l-0.021-0.028 197.633 214.857c4.097 4.468 6.611 10.437 6.611 17 0 13.886-11.27 25.16-25.16 25.16-0.016 0-0.021 0-0.047 0h-487.509c-0.099 0.003-0.22 0.004-0.334 0.004-13.771 0-24.934-11.168-24.934-24.934 0-6.679 2.634-12.764 6.917-17.238l-0.016 0.016z" />
<glyph unicode="&#xe951;" glyph-name="book" d="M691.2 746.667h-358.4c-32.853 0-59.733-26.88-59.733-59.733v-477.867c0-32.853 26.88-59.733 59.733-59.733h358.4c32.853 0 59.733 26.88 59.733 59.733v477.867c0 32.853-26.88 59.733-59.733 59.733zM422.4 686.933h59.733v-149.333l-29.867 22.4-29.867-22.4v149.333zM691.2 209.067h-358.4v477.867h29.867v-268.8l89.6 67.2 89.6-67.2v268.8h149.333v-477.867z" />
<glyph unicode="&#xe952;" glyph-name="open_book" d="M823.55 645.067l-46.813 0.003v48.47c0 11.093-8.119 20.521-19.095 22.165-1.912 0.288-47.522 6.909-102.459-3.085-61.233-11.14-110.059-38.611-143.179-80.148-33.121 41.537-81.959 69.007-143.179 80.148-54.923 9.991-100.532 3.365-102.459 3.085-10.975-1.639-19.095-11.070-19.095-22.165v-48.47h-46.813c-12.376 0-22.409-10.042-22.409-22.412v-422.352c0-7.256 3.513-14.064 9.435-18.272s13.501-5.283 20.352-2.893c1.679 0.587 169.639 57.901 294.882 0.775 5.911-2.694 12.695-2.694 18.606 0 124.885 56.967 293.198-0.195 294.882-0.775 2.404-0.833 4.886-1.248 7.371-1.248 4.596 0 9.137 1.409 12.981 4.135 5.921 4.205 9.435 11.016 9.435 18.272v422.352c-0.003 12.376-10.042 22.412-22.412 22.412zM222.858 230.288v369.951h24.402v-298.495c0-6.511 2.852-12.698 7.784-16.957s11.481-6.163 17.918-5.218c1.231 0.187 98.61 13.552 169.747-35.268-87.634 14.981-175.327-2.348-219.849-14.028zM489.59 264.54c-31.331 28.31-72.139 47.457-120.768 56.301-23.404 4.262-45.115 5.499-62.482 5.499-5.148 0-9.927-0.115-14.239-0.288v346.901h-0.003c43.075 1.94 147.872-2.66 197.49-86.78v-321.636zM534.407 586.175c49.449 83.754 154.395 88.574 197.49 86.725v-346.846c-18.856 0.761-46.374 0.307-76.722-5.218-48.632-8.848-89.437-27.986-120.768-56.301v321.633zM581.211 244.315c71.149 48.839 168.57 35.458 169.785 35.272 6.461-0.964 13.009 0.93 17.947 5.184 4.945 4.262 7.784 10.452 7.784 16.984v298.489h24.402v-369.947c-44.524 11.697-132.273 29.028-219.925 14.027z" />
<glyph unicode="&#xe953;" glyph-name="copy" d="M624.487 757.333h-337.466c-30.933 0-56.233-25.314-56.233-56.233v-393.693h56.233v393.693h337.466v56.233zM596.36 644.847h-196.847c-30.933 0-55.976-25.314-55.976-56.233l-0.283-393.693c0-30.933 25.043-56.233 55.976-56.233h309.626c30.933 0 56.233 25.314 56.233 56.233v281.207l-168.713 168.713zM399.513 194.904v393.693h168.713v-140.616h140.616v-253.096h-309.333z" />
<glyph unicode="&#xe954;" glyph-name="sort-by-alpha" d="M475 499.8h-37c-7.4 0-12.337 9.863-14.8 12.337s-17.263 49.337-17.263 49.337h-101.137l-17.263-49.337c0-2.463-9.863-12.337-17.263-12.337h-32.063l96.2 244.2h46.863l93.737-244.2zM396.063 593.537l-34.537 111-41.937-111h76.463zM430.6 366.6l-125.8-177.6h125.8v-37h-185v17.263c0 2.463 0 2.463 0 7.4 2.463 2.463 130.737 185 130.737 185h-120.863v37h182.537v-17.263c-2.463-2.463-4.937-12.337-7.4-14.8zM684.663 287.663v456.337h-66.6v-456.337h-106.063l138.137-135.663 135.663 135.663z" />
<glyph unicode="&#xe955;" glyph-name="Flag_filled" d="M584.281 607.372l-12.047 60.233h-271.060v-511.998h60.233v210.822h168.658l12.047-60.233h210.822v301.177z" />
<glyph unicode="&#xe956;" glyph-name="Flag" d="M572.233 607.372l-30.117 60.233h-240.942v-511.998h60.233v210.822h150.588l30.117-60.233h210.822v301.177h-180.705zM692.705 366.434h-120.472l-30.117 60.233h-180.705v180.705h150.588l30.117-60.233h150.588v-180.705z" />
<glyph unicode="&#xe957;" glyph-name="Thumb_up" d="M203.853 180.149h61.628c16.947 0 30.815 13.863 30.815 30.815v277.334c0 16.947-13.863 30.815-30.815 30.815h-61.628v-338.963zM814.908 399.55c3.388 7.701 5.238 16.021 5.238 24.653v33.28c0 33.896-27.734 61.628-61.628 61.628h-169.482l28.348 143.29c1.539 6.778 0.616 14.175-2.462 20.337-7.088 13.863-16.021 26.499-27.117 37.593l-14.175 14.483-197.523-197.523c-11.708-11.708-18.179-27.422-18.179-43.757v-241.587c0-39.443 32.355-71.798 72.103-71.798h249.907c21.572 0 41.907 11.402 53.002 29.892l81.968 189.51z" />
<glyph unicode="&#xe958;" glyph-name="Thumbs_down" d="M796.443 654.222h-56.887c-15.643 0-28.447-12.799-28.447-28.447v-256.003c0-15.643 12.799-28.447 28.447-28.447h56.887v312.889zM232.393 451.698c-3.127-7.111-4.835-14.791-4.835-22.757v-30.72c0-31.291 25.603-56.887 56.887-56.887h156.445l-26.167-132.268c-1.423-6.259-0.571-13.087 2.275-18.775 6.543-12.799 14.791-24.463 25.031-34.701l13.087-13.369 182.329 182.329c10.807 10.807 16.783 25.315 16.783 40.391v222.72c0 36.692-29.866 66.559-66.559 66.559h-230.4c-20.195 0-38.683-10.525-48.925-27.593l-75.946-174.932z" />
<glyph unicode="&#xe959;" glyph-name="blank49" d="M0.001-32.972l992.974 992.974 31.030-31.030-992.974-992.974-31.030 31.030z" />
<glyph unicode="&#xe95a;" glyph-name="shuffle" d="M466.88 517.226l-165.761 165.439-45.12-45.12 165.439-165.439 45.439 45.12zM591.999 682.668l65.28-65.28-401.28-401.599 45.12-45.12 401.599 401.28 65.28-65.28v175.999h-175.999zM602.559 381.547l-45.12-45.12 100.159-100.159-65.599-65.599h175.999v175.999l-65.28-65.28-100.159 100.159z" />
<glyph unicode="&#xe95b;" glyph-name="blank51" d="M0.001-32.972l992.974 992.974 31.030-31.030-992.974-992.974-31.030 31.030z" />
<glyph unicode="&#xe95c;" glyph-name="home" d="M513.462 603.651l154.338-142.236v-236.048h-63.553v196.81h-175.419v-208.812h-69.604v245.023l154.234 145.259zM513.462 682.334l-293.443-269.231h81.71v-242.102h181.577v196.706h60.526v-196.706h178.549v242.102h81.71l-290.626 269.231z" />
<glyph unicode="&#xe95d;" glyph-name="home_filled" d="M449.276 139.001v187.955h125.34v-187.955h156.647v250.679h94.032l-313.295 281.987-313.295-281.987h94.032v-250.679h156.539z" />
<glyph unicode="&#xe95e;" glyph-name="delete" d="M330.66 236.441c0-33.241 27.2-60.441 60.441-60.441h241.779c33.241 0 60.441 27.2 60.441 60.441v362.66h-362.66v-362.66zM723.559 689.779h-105.779l-30.221 30.221h-151.112l-30.221-30.221h-105.779v-60.441h423.112v60.441z" />
<glyph unicode="&#xe95f;" glyph-name="delete_outline" d="M303.997 205.331c0-38.131 31.2-69.331 69.331-69.331h277.334c38.131 0 69.331 31.2 69.331 69.331v415.997h-415.997v-415.997zM373.338 551.997h277.334v-346.666h-277.334v346.666zM633.334 725.334l-34.666 34.666h-173.338l-34.666-34.666h-121.334v-69.331h485.338v69.331z" />
<glyph unicode="&#xe960;" glyph-name="cancel" d="M512 714.667c-147.467 0-266.667-119.2-266.667-266.667s119.2-266.667 266.667-266.667 266.667 119.2 266.667 266.667-119.2 266.667-266.667 266.667zM645.333 352.267l-37.6-37.6-95.733 95.733-95.733-95.733-37.6 37.6 95.733 95.733-95.733 95.733 37.6 37.6 95.733-95.733 95.733 95.733 37.6-37.6-95.733-95.733 95.733-95.733z" />
<glyph unicode="&#xe961;" glyph-name="download" d="M729.421 541.176h-124.229v186.352h-186.352v-186.352h-124.229l217.421-217.421 217.421 217.421zM294.579 261.648v-62.123h434.827v62.123h-434.827z" />
<glyph unicode="&#xe962;" glyph-name="next" d="M320 256l272 192-272.008 192v-384zM640.008 640v-384h63.992v384h-63.992z" />
<glyph unicode="&#xe963;" glyph-name="previous" d="M312 648h66.665v-400h-66.665zM428.665 448l283.335-200v400z" />
<glyph unicode="&#xe964;" glyph-name="audio" d="M570.173 704.004v-61.094c84.359-26.178 145.454-101.817 145.454-194.915s-61.094-168.719-145.454-194.915v-61.094c116.363 26.178 203.635 130.908 203.635 255.991 0 125.119-87.272 229.849-203.635 256.027zM511.992 680.739l-145.454-145.454h-116.363v-174.544h116.363l145.454-145.454v465.451zM570.173 564.376v-232.726c43.636 20.371 72.727 64.007 72.727 116.363s-29.091 95.992-72.727 116.363z" />
<glyph unicode="&#xe965;" glyph-name="audiooff" d="M639.995 449.42c0 51.191-28.454 93.862-71.107 113.778v-62.587l71.107-71.088v19.897zM711.102 449.42c0-25.595-5.698-51.209-14.218-73.965l42.671-42.671c19.916 34.152 28.435 76.823 28.435 119.494 0 122.316-85.342 224.716-199.12 250.311v-59.729c82.503-28.454 142.231-102.418 142.231-193.44zM290.998 704.009l-35.007-35.553 133.693-133.693h-133.693v-170.667h113.778l142.231-142.231v190.582l122.316-122.316c-19.916-14.218-39.831-25.595-65.427-34.133v-59.729c39.813 8.538 73.946 25.595 105.24 51.209l58.873-55.469 35.007 35.553-256.009 255.991-221.002 220.456zM512 676.975l-59.729-59.729 59.729-59.729v119.458z" />
<glyph unicode="&#xe966;" glyph-name="audioplaying" d="M547.99 704l-159.99-159.99h-128.014v-191.993h127.986l159.99-159.99v511.973zM619.998 555.998v-215.996l143.988 107.998-143.988 107.998z" />
<glyph unicode="&#xe967;" glyph-name="video" d="M767.983 691.205c-19.202 6.406-137.593 12.796-256 12.796-118.391 0-236.798-6.406-256-12.796-51.184-15.991-63.996-127.992-63.996-243.188s12.796-227.197 63.996-243.188c19.202-6.406 137.593-12.796 256-12.796 118.391 0 236.798 6.406 256 12.796 51.2 15.991 63.996 127.992 63.996 243.188s-12.796 227.197-63.996 243.188zM431.996 328.020v239.993l199.999-119.996-199.999-119.996z" />
<glyph unicode="&#xe968;" glyph-name="videostop" d="M511.988 704.013c-85.529 1.908-171.084-2.373-255.995-12.812-51.199-16-63.999-127.985-63.999-243.182s12.8-227.245 63.999-243.245c84.912-10.417 170.467-14.678 255.995-12.75 85.527-1.929 171.082 2.332 255.995 12.75 51.199 16 63.999 128.047 63.999 243.245s-12.8 227.183-63.999 243.182c-84.911 10.439-170.466 14.721-255.995 12.812zM431.99 528.012h159.997v-159.997h-159.997v159.997z" />
<glyph unicode="&#xe969;" glyph-name="videothumbplay" d="M460.799 332.805l153.6 115.196-153.6 115.196v-230.392zM511.999 704.001c-140.804 0-256-115.196-256-256s115.196-256 256-256 256 115.196 256 256-115.196 256-256 256zM511.999 243.201c-112.64 0-204.8 92.16-204.8 204.8s92.16 204.8 204.8 204.8c112.64 0 204.8-92.16 204.8-204.8s-92.16-204.8-204.8-204.8z" />
<glyph unicode="&#xe96a;" glyph-name="commentary" d="M191.993 671.997v-64.007h640.014v64.007h-640.014zM191.993 544.010v-64.007h384.014v64.007h-384.014zM191.993 415.997v-64.007h640.014v64.007h-640.014zM191.993 288.010v-64.007h384.014v64.007h-384.014z" />
<glyph unicode="&#xe96b;" glyph-name="translate" d="M362.058 462.628h64.609l-32.183 89.478zM717.288 627.2c-0.163 0.001-0.326 0.001-0.489 0h-233.325l-22.674 76.8h-153.6c-28.142 0.135-51.065-22.569-51.2-50.711-0.001-0.163-0.001-0.326 0-0.489v-332.799c-0.135-28.142 22.569-51.065 50.711-51.2 0.163-0.001 0.326-0.001 0.489 0h180.419l24.381-76.799h204.799c28.142-0.135 51.065 22.569 51.2 50.711 0.001 0.163 0.001 0.326 0 0.489v332.799c0.135 28.142-22.569 51.065-50.711 51.2zM450.316 393.143l-11.459 33.645h-87.771l-12.19-33.645h-46.324l75.337 195.047h51.931l75.093-195.047h-44.617zM742.399 576v-332.799c0-13.465-10.916-24.381-24.381-24.381h-181.638l51.2 51.2-15.36 51.931-20.236 71.192-30.476 104.107-30.476 104.35h225.767c13.447 0.691 24.909-9.65 25.6-23.098 0.043-0.834 0.043-1.669 0-2.503zM655.36 358.035c-14.232 2.511-27.924 7.46-40.472 14.628-8.908 4.192-14.871 12.856-15.604 22.674 0 5.039 5.526 12.434 16.579 22.187 12.204 10.668 25.16 20.446 38.765 29.257 11.563 7.833 23.615 14.918 36.084 21.212l11.703 30.964c-17.331-6.721-33.72-15.653-48.762-26.575-5.524 2.154-10.7 5.111-15.36 8.777-4.515 3.446-8.393 7.654-11.459 12.434 15.88 4.852 32.222 8.038 48.762 9.508l13.653 45.105c-10.509-1.060-20.884-3.183-30.964-6.339-9.248-2.675-17.983-6.877-25.844-12.434-5.583-5.134-10.497-10.95-14.628-17.31-5.392-7.67-10.045-15.833-13.897-24.381-3.318-7.038-5.223-14.659-5.608-22.43 0.152-5.375 1.572-10.638 4.145-15.36 2.515-5.087 6.089-9.576 10.484-13.166-11.777-12.346-21.861-26.202-29.988-41.204-6.701-11.344-10.549-24.144-11.215-37.303-0.663-13.828 6.007-26.984 17.554-34.621 13.621-8.543 29.532-12.712 45.592-11.947 12.844-0.030 25.607 2.029 37.79 6.095 10.987 3.577 21.351 8.841 30.72 15.604 7.548 5.247 13.87 12.068 18.53 19.992l-14.628-0.488c-17.438-0.036-34.836 1.679-51.932 5.119z" />
<glyph unicode="&#xe96c;" glyph-name="diacritics" d="M416 704v-64h256v64h-256zM557.839 567.276c-22.84 0-43.989-3.383-63.445-10.15-19.245-6.767-36.692-15.967-52.342-27.599s-29.502-25.272-41.557-40.922c-11.843-15.438-21.783-32.040-29.819-49.805s-14.169-36.164-18.398-55.197c-4.018-19.033-6.027-37.749-6.027-56.148 0-19.033 2.115-36.798 6.345-53.294s10.68-30.877 19.351-43.143c8.882-12.054 20.091-21.571 33.626-28.55 13.746-6.979 30.031-10.469 48.853-10.469 10.574 0 20.513 1.269 29.818 3.807 9.517 2.326 18.294 5.499 26.33 9.518 8.036 4.23 15.333 8.881 21.889 13.957 6.767 5.287 12.689 10.786 17.765 16.496l0.634-0.952c-0.634-14.592 3.384-25.377 12.055-32.356s20.302-10.469 34.895-10.469c10.786 0 20.726 1.798 29.819 5.394 9.094 3.384 17.025 7.401 23.792 12.054 6.979 4.864 12.689 9.623 17.13 14.275 4.653 4.864 7.719 8.46 9.199 10.786l-9.517 19.984c-7.402-5.921-13.324-9.834-17.765-11.737-4.23-1.903-7.824-2.854-10.785-2.854-3.595 0-6.661 1.797-9.199 5.393-2.326 3.807-2.961 10.045-1.903 18.716l41.238 303.267-42.825-12.371c-4.653 1.48-9.834 2.96-15.544 4.44-5.71 1.692-11.632 3.067-17.765 4.124-5.922 1.057-11.948 1.904-18.081 2.538-6.133 0.846-12.055 1.269-17.765 1.269v0zM548.957 525.721c12.055 0 22.735-1.692 32.040-5.076l-32.357-242.677c-4.018-4.653-8.565-9.2-13.641-13.641-4.864-4.23-10.15-8.036-15.86-11.42-5.499-3.172-11.315-5.816-17.448-7.931-6.133-1.903-12.477-2.854-19.033-2.854-15.227 0-27.281 7.931-36.163 23.792-8.671 16.073-13.007 38.489-13.007 67.251 0 13.535 0.846 27.599 2.538 42.191 1.903 14.804 4.759 29.29 8.565 43.459 4.018 14.381 9.094 28.021 15.227 40.922s13.429 24.215 21.889 33.943c8.671 9.728 18.505 17.447 29.502 23.157 11.209 5.922 23.791 8.883 37.749 8.883z" />
<glyph unicode="&#xe96d;" glyph-name="comments" d="M716.799 704.001h-409.6c-28.277 0-51.2-22.923-51.2-51.2v-460.8l102.4 102.4h358.4c28.277 0 51.2 22.923 51.2 51.2v307.2c0 28.277-22.923 51.2-51.2 51.2zM716.799 345.601h-358.4l-51.2-51.2v358.4h409.6v-307.2z" />
<glyph unicode="&#xe96e;" glyph-name="commentsfilled" d="M716.799 704.001h-409.6c-28.277 0-51.2-22.923-51.2-51.2v-460.8l102.4 102.4h358.4c28.277 0 51.2 22.923 51.2 51.2v307.2c0 28.277-22.923 51.2-51.2 51.2z" />
<glyph unicode="&#xe96f;" glyph-name="critique" d="M487.997 575.993h48.005v-151.994h-48.005v151.994zM511.999 192.001c-140.804 0-256 115.196-256 256s115.196 256 256 256 256-115.196 256-256-115.196-256-256-256zM511.999 652.801c-112.64 0-204.8-92.16-204.8-204.8s92.16-204.8 204.8-204.8c112.64 0 204.8 92.16 204.8 204.8s-92.16 204.8-204.8 204.8zM487.997 375.993h48.005v-48.005h-48.005v48.005z" />
<glyph unicode="&#xe970;" glyph-name="critiquefilled" d="M512 704c-140.804 0-256-115.196-256-256s115.196-256 256-256 256 115.196 256 256-115.196 256-256 256zM536.003 319.992h-48.005v48.005h48.005v-48.005zM536.003 416.002h-48.005v159.99h48.005v-159.99z" />
<glyph unicode="&#xe971;" glyph-name="additionalinfo" d="M512 192c-140.804 0-256 115.196-256 256s115.196 256 256 256 256-115.196 256-256-115.196-256-256-256zM536.003 576.008h-48.005v-48.005h48.005v48.005zM536.003 479.998h-48.005v-160.006h48.005v160.006z" />
<glyph unicode="&#xe972;" glyph-name="external" d="M711.101 248.899h-398.222v398.222h199.12v56.889h-199.12c-31.293 0-56.889-25.595-56.889-56.889v-398.222c0-31.293 25.595-56.889 56.889-56.889h398.222c31.293 0 56.889 25.595 56.889 56.889v199.102h-56.889v-199.102zM568.888 704.010v-56.889h102.4l-278.765-278.765 39.831-39.813 278.765 278.765v-102.418h56.889v199.12h-199.12z" />
<glyph unicode="&#xe973;" glyph-name="play" d="M319.99 682.68v-512l383.994 256.012-383.994 255.988z" />
<glyph unicode="&#xe974;" glyph-name="pause" d="M320.002 192.013h128.006v512h-128.006v-512zM575.99 704.013v-512h128.006v512h-128.006z" />
<glyph unicode="&#xe975;" glyph-name="popular" d="M550.403 704.001c0 0 15.368-63.996 15.368-115.196 0-48.644-33.276-89.604-81.92-89.604s-87.048 40.96-87.048 89.604v7.684c-48.644-58.884-76.808-133.12-76.808-212.484 0-104.956 87.048-192.004 192.004-192.004s192.004 87.048 192.004 192.004c0 130.564-58.884 245.76-153.6 319.996zM511.999 268.809c-43.516 0-76.808 33.276-76.808 74.236 0 38.404 25.608 66.552 66.568 74.236 43.516 7.684 87.032 28.164 110.084 61.44 10.24-30.72 15.352-63.996 15.352-97.272 0-61.44-51.2-112.64-115.196-112.64v0z" />
<glyph unicode="&#xe976;" glyph-name="editorschoice" d="M349.098 420.073v-93.091l162.917-88.429 162.902 88.429v93.091l-162.917-88.429-162.902 88.429zM511.999 657.463l-255.993-139.636 256.007-139.636 209.462 114.033v-160.578h46.545v186.182l-256.022 139.636z" />
<glyph unicode="&#xe977;" glyph-name="photo" d="M800 224v448c0 35.2-28.8 64-64 64h-448c-35.2 0-64-28.8-64-64v-448c0-35.2 28.8-64 64-64h448c35.2 0 64 28.8 64 64zM400 400l80-96 112 144 144-192h-448l112 144z" />
<glyph unicode="&#xe978;" glyph-name="critique_new" d="M358.885 731.542c-153.062-81.060-211.42-270.833-130.356-423.897s270.833-211.42 423.897-130.356l71.195-47.221c1.928-1.301 4.301-2.066 6.855-2.066 6.821 0 12.361 5.541 12.361 12.361 0 0.739-0.061 1.454-0.181 2.141l0.017-0.071-13.101 93.198c55.020 56.458 88.968 133.686 88.968 218.846v0.001c0 173.181-140.451 313.555-313.656 313.53-53.43-0.141-103.693-13.621-147.654-37.289l1.664 0.821zM299.271 251.459c-112.020 113.59-110.745 296.486 2.861 408.503s296.486 110.745 408.503-2.861 110.745-296.486-2.861-408.503c-2.287-2.247-3.701-5.371-3.701-8.821 0-0.592 0.043-1.181 0.125-1.748l-0.012 0.061 10.8-71.78-55.74 36.221c-1.781 1.042-3.901 1.661-6.181 1.661s-4.412-0.621-6.238-1.692l0.061 0.027c-40.791-23.341-89.66-37.101-141.742-37.101-80.544 0-153.417 32.92-205.861 86.039l-0.023 0.024zM505.228 402.939c-0.007 0-0.016 0-0.021 0-12.742 0-23.085 10.341-23.085 23.085 0 0.009 0 0.017 0 0.021v-0.001 138.589c0 12.755 10.341 23.101 23.101 23.101s23.101-10.341 23.101-23.101v0-138.589c-0.046-12.741-10.359-23.061-23.101-23.101h-0.007zM505.228 308.258c-3.181 0.038-6.185 0.716-8.926 1.907l0.141-0.061c-5.821 2.148-10.314 6.661-12.421 12.327l-0.051 0.141c-1.172 2.581-1.852 5.6-1.852 8.781s0.68 6.189 1.901 8.91l-0.061-0.141c1.128 2.975 2.781 5.501 4.861 7.621l-0.004-0.004c4.167 4.101 9.888 6.635 16.196 6.635 1.621 0 3.192-0.17 4.717-0.484l-0.143 0.021c3.143-0.701 5.938-1.901 8.412-3.519l-0.101 0.061c1.391-0.839 2.605-1.749 3.701-2.781l-0.021 0.021c2.076-2.104 3.73-4.652 4.803-7.462l0.056-0.141c1.172-2.581 1.852-5.6 1.852-8.781s-0.68-6.189-1.901-8.91l0.061 0.141c-1.251-2.941-2.879-5.459-4.865-7.638l0.021 0.021c-2.173-1.97-4.69-3.597-7.443-4.781l-0.181-0.061c-2.581-1.125-5.587-1.781-8.747-1.812h-0.013z" />
<glyph unicode="&#xe979;" glyph-name="restore" d="M728.89 287.098h-87.371v305.003h-305.003v87.52h392.376v-392.524zM658.168 303.897h54.070v358.926h-359.074v-54.070h305.003v-304.856zM658.168 216.377h-392.524v392.524h392.376v-392.524zM282.444 233.177h359.074v358.926h-359.074v-358.926z" />
<glyph unicode="&#xe97a;" glyph-name="maximize" d="M740.756 229.948h-435.94v435.94h435.776v-435.94zM323.464 248.598h398.79v398.626h-398.79v-398.626z" />
<glyph unicode="&#xe97b;" glyph-name="profile_ico" d="M512.513 775.862c0 0 0 0 0 0-181.113 0.513-327.862-145.722-328.364-326.834s145.722-327.862 326.834-328.364 327.862 145.722 328.364 326.834c1.028 180.609-144.694 327.337-326.834 328.364zM412.472 591.142c0.513 54.389 45.146 98.504 100.055 97.483 53.871 0.513 100.055-47.196 99.528-100.557 0 0 0 0 0-0.513-0.513-55.416-46.17-99.528-101.585-99.028-0.513 0-1.537 0-2.055 0-54.389 1.028-97.483 46.17-95.945 100.557 0 1.028 0 1.537 0 2.055zM658.743 235.079c-46.17-22.057-95.945-27.194-132.889-27.704-61.567 0-108.777 5.138-153.416 24.112s-54.895 41.556-45.666 89.784c14.362 74.391 71.833 132.889 145.722 148.793 101.585 21.555 201.64-43.101 223.195-145.196 2.558-11.805 3.585-24.112 3.585-36.424 0-27.704-18.472-43.101-40.529-53.361z" />
<glyph unicode="&#xe97c;" glyph-name="critique_new_filled" d="M735.004 230.221c58.45 60.026 91.226 140.489 91.226 224.275 0 177.703-143.973 321.521-321.521 321.521-52.104-0.155-103.586-12.981-149.676-37.376-156.799-83.148-216.67-277.65-133.677-434.604 83.148-156.799 277.65-216.67 434.604-133.521l73.009-48.464c5.858-3.794 13.625-2.374 17.575 3.484 1.743 2.686 2.53 6.013 1.907 9.187l-13.47 95.509zM526.89 319.389c-1.265-2.85-2.85-5.548-4.904-7.767-2.374-2.064-4.904-3.794-7.767-4.904-2.85-1.265-5.858-1.907-9.032-1.907s-6.171 0.636-9.032 1.907c-6.013 2.219-10.607 6.813-12.826 12.826-2.53 5.703-2.53 12.199 0 18.063 1.11 2.85 2.85 5.548 4.904 7.767 5.548 5.548 13.625 7.922 21.22 6.335 3.014-0.636 5.858-1.907 8.549-3.484 1.42-0.799 2.686-1.743 3.794-2.85 2.219-2.219 3.957-4.904 4.904-7.767 2.686-6.013 2.686-12.516 0.155-18.219zM528.791 425.509c0-12.981-10.607-23.598-23.762-23.762-13.142 0-23.598 10.607-23.762 23.598 0 0 0 0 0 0v142.065c0 13.142 10.607 23.598 23.762 23.598 12.981 0 23.598-10.607 23.598-23.598v-141.909z" />
<glyph unicode="&#xe97d;" glyph-name="blank66" d="M0.001-32.972l992.974 992.974 31.030-31.030-992.974-992.974-31.030 31.030z" />
<glyph unicode="&#xe97e;" glyph-name="Ghazals" d="M178.647 529.385q160.548-67.929 321.175-136.172c2.652-1.233 5.761-1.954 9.032-1.954s6.381 0.723 9.168 2.009l-0.137-0.056 322.515 136.961c6.835 2.6 11.602 9.096 11.602 16.707 0 0.144-0.002 0.289-0.005 0.433l0.001-0.021c-0.259 8.081-5.671 14.829-13.044 17.085l-0.13 0.034-321.963 121.183c-2.394 0.974-5.171 1.539-8.086 1.539s-5.691-0.565-8.235-1.593l0.148 0.056-322.436-121.575c-5.28-1.824-9.383-5.877-11.242-10.996l-0.041-0.126c-0.432-1.106-0.86-2.503-1.21-3.929l-0.052-0.25v-3.706c1.258-7.235 6.206-13.074 12.799-15.576l0.138-0.046zM235.134 546.663l271.629 102.562c0.626 0.208 1.342 0.325 2.093 0.325s1.466-0.119 2.139-0.341l-0.047 0.013 273.443-103.193-10.255-4.419-262.873-111.712c-0.747-0.393-1.629-0.621-2.566-0.621s-1.82 0.232-2.596 0.638l0.029-0.015-272.811 115.896c0.521 0.328 1.119 0.621 1.751 0.847l0.068 0.017zM820.381 340.805q-154.534-65.564-308.994-131.127c-0.75-0.371-1.63-0.587-2.566-0.587s-1.815 0.215-2.6 0.599l0.034-0.017-309.774 131.826c-2.222 1.059-4.828 1.676-7.577 1.676-9.006 0-16.464-6.625-17.764-15.264l-0.012-0.1c-0.138-0.42-0.296-0.781-0.482-1.123l0.017 0.034v-3.655c0.389-1.322 0.696-2.644 1.089-3.888 1.905-5.189 5.889-9.224 10.915-11.156l0.126-0.041c29.709-12.52 59.419-25.198 89.131-37.797l234.1-99.318 2.1-1.167h1.322l2.411 1.242 290.716 123.503c11.121 4.744 22.319 9.333 33.366 14.155 6.473 2.737 10.934 9.038 10.934 16.379 0 4.276-1.513 8.202-4.035 11.259l0.025-0.029c-3.376 4.061-8.43 6.629-14.087 6.629-3.064 0-5.955-0.755-8.494-2.089l0.102 0.049zM184.192 379.024l322.686-136.629c0.626-0.316 1.359-0.501 2.139-0.501s1.514 0.186 2.166 0.513l-0.028-0.013 274.581 116.576c16.476 6.993 33.030 13.912 49.508 20.985 6.739 2.639 11.428 9.079 11.428 16.619 0 1.020-0.086 2.018-0.25 2.993l0.016-0.102c-1.523 8.545-8.894 14.948-17.763 14.948-2.93 0-5.695-0.696-8.141-1.936l0.102 0.047q-154.659-65.749-309.399-131.267c-0.696-0.335-1.511-0.529-2.372-0.529s-1.678 0.195-2.405 0.541l0.033-0.016-309.629 131.346c-2.269 1.106-4.934 1.751-7.753 1.751-8.312 0-15.316-5.629-17.398-13.284l-0.029-0.126c0-0.778-0.468-1.555-0.778-2.333v-4.116c1.453-7.211 6.496-12.973 13.147-15.421l0.143-0.046zM183.622 450.76l323.254-137.182c0.587-0.296 1.285-0.468 2.018-0.468s1.431 0.177 2.047 0.481l-0.026-0.012 288.045 122.262c12.203 5.21 24.481 10.34 36.686 15.544 6.523 2.685 11.031 8.995 11.031 16.356 0 2.337-0.456 4.57-1.278 6.613l0.041-0.117c-2.838 6.741-9.39 11.389-17.025 11.389-2.911 0-5.662-0.672-8.109-1.876l0.108 0.047-308.798-131.043c-0.769-0.388-1.681-0.614-2.642-0.614s-1.872 0.226-2.676 0.629l0.033-0.016-309.884 131.355c-2.184 1.021-4.744 1.615-7.439 1.615-8.278 0-15.251-5.603-17.325-13.226l-0.029-0.126c0-0.856-0.468-1.711-0.778-2.566v-3.654c0.153-0.246 0.281-0.529 0.381-0.827l0.008-0.029c1.153-6.835 5.919-12.323 12.229-14.497l0.129-0.040z" />
<glyph unicode="&#xe97f;" glyph-name="Nazams" d="M769.186 481.615q-143.832 102.508-286.966 205.469c-2.538 1.847-5.541 3.464-8.080 5.077h-4.85c-2.77-1.617-5.541-3.23-8.080-5.077l-206.397-147.755c-3.923-2.518-6.855-6.277-8.273-10.711l-0.040-0.143v-5.311c1.357-4.567 4.222-8.328 8.006-10.803l0.074-0.043 289.739-207.78c2.126-1.83 4.914-2.945 7.963-2.945s5.839 1.115 7.98 2.96l-0.019-0.014 210.092 150.525c3.489 2.287 6.053 5.745 7.133 9.81l0.028 0.118v5.541c-1.407 4.667-4.355 8.509-8.236 11.037l-0.079 0.044zM740.559 466.373l-186.308-133.67c-0.502-0.502-1.196-0.812-1.965-0.812s-1.459 0.313-1.965 0.812v0l-269.189 193.003 190.465 136.673 271.27-194.389zM769.167 408.887c-4.505 3.79-9.488 7.468-14.699 10.827l-0.576 0.348c-1.644 0.948-3.621 1.506-5.725 1.506-6.151 0-11.186-4.776-11.598-10.817l-0.004-0.035c-0.079-0.614-0.118-1.321-0.118-2.041 0-3.962 1.332-7.616 3.573-10.539l-0.031 0.043-1.826-1.37-184.213-132.006c-1.826-1.37-2.733 0-4.558 0l-263.325 188.774-2.051 1.826c1.94 2.455 3.11 5.596 3.11 9.005s-1.171 6.55-3.132 9.037l0.022-0.031c-1.967 2.711-5.128 4.456-8.695 4.456-2.696 0-5.162-0.998-7.046-2.645l0.013 0.009-10.257-7.294c-4.053-2.412-7.109-6.14-8.62-10.579l-0.043-0.14v-5.931c1.425-4.208 4.146-7.666 7.678-9.984l0.071-0.043 285.895-205.185c2.222-1.915 5.138-3.083 8.323-3.083s6.103 1.17 8.335 3.099l-0.019-0.015 205.185 147.736c3.866 2.43 6.718 6.169 7.951 10.589l0.031 0.13v5.472c-0.725 3.365-1.989 6.341-3.712 8.992l0.064-0.105zM769.401 339.347c-4.642 3.934-9.773 7.757-15.138 11.26l-0.595 0.366c-1.583 0.861-3.469 1.37-5.472 1.37-6.34 0-11.496-5.076-11.624-11.387v-0.011c-0.068-0.576-0.112-1.236-0.112-1.914 0-3.859 1.332-7.406 3.558-10.207l-0.026 0.031-188.092-134.97-267.887 191.968c0.028 0.17 0.043 0.366 0.043 0.57s-0.018 0.401-0.043 0.589l0.005-0.019c1.679 2.349 2.683 5.274 2.683 8.434s-1.008 6.092-2.717 8.481l0.031-0.043c-1.967 2.711-5.128 4.456-8.695 4.456-2.696 0-5.162-0.998-7.046-2.645l0.013 0.009c-3.65-2.51-7.070-5.245-10.715-7.524-3.972-2.374-6.91-6.129-8.174-10.591l-0.031-0.13v-5.472c1.43-4.648 4.419-8.458 8.352-10.896l0.081-0.046 282.476-202.225c2.733-2.051 5.931-3.65 8.663-5.472h4.79c2.018 1.035 3.737 2.092 5.361 3.272l-0.118-0.081 206.56 147.736c3.873 2.485 6.771 6.195 8.17 10.579l0.039 0.141v5.245c-1.064 3.475-2.539 6.501-4.406 9.238l0.076-0.118zM546.506 445.451l-109.2 78.84c-1.729 1.023-3.749 1.977-5.85 2.755l-0.266 0.084c-5.493-0.378-9.961-4.331-11.124-9.525l-0.018-0.081c-0.328-1.145-0.523-2.458-0.523-3.811 0-4.567 2.161-8.633 5.51-11.233l0.031-0.023 109.2-78.84c1.791-1.481 4.113-2.374 6.645-2.374 4.196 0 7.815 2.462 9.488 6.023l0.029 0.065c1.171 1.979 1.862 4.366 1.862 6.91 0 4.612-2.269 8.695-5.75 11.186l-0.043 0.031zM545.893 485.521c6.699-5.076 13.597-9.947 20.296-14.817s10.961-8.117 16.64-11.769 16.032 0 15.83 11.57c-0.131 3.638-2.017 6.803-4.83 8.702l-0.040 0.024-36.731 26.382c-1.547 1.184-3.513 1.895-5.639 1.895-1.258 0-2.46-0.251-3.553-0.7l0.062 0.021c-3.858-1.717-6.563-5.375-6.898-9.699l-0.004-0.041c-0.101-0.576-0.155-1.244-0.155-1.918 0-3.975 1.973-7.492 4.989-9.624l0.037-0.024zM479.898 532.262l36.137-25.843c1.627-0.981 3.501-1.803 5.485-2.382l0.167-0.043c4.952 0.51 8.967 3.985 10.277 8.596l0.019 0.081c0.304 1.045 0.477 2.239 0.477 3.477 0 4.282-2.080 8.075-5.286 10.428l-35.366 25.869c-1.593 1.196-3.601 1.912-5.779 1.912-3.848 0-7.17-2.237-8.732-5.485l-0.026-0.056c-1.27-1.927-2.024-4.283-2.024-6.823 0-3.923 1.803-7.418 4.625-9.714l0.022-0.019z" />
<glyph unicode="&#xe980;" glyph-name="e-books" d="M862.689 799.464c0.317-0.014 0.691-0.022 1.065-0.022 16.067 0 29.355 11.913 31.506 27.391l0.023 0.169c0.077 0.407 0.129 0.877 0.129 1.36s-0.045 0.953-0.129 1.405l0.009-0.045v3.876c0.083 0.811 0.132 1.758 0.132 2.719s-0.049 1.897-0.144 2.83l0.012-0.119c-2.516 11.304-10.774 20.22-21.501 23.599l-0.229 0.064h-577.247c-5.579-0.7-10.563-1.79-15.386-3.273l0.644 0.172c-44.324-10.771-76.85-49.783-77.58-96.517l-0.001-0.077c0-38.797 0-79.916 0-119.874 0.018-11.835 2.151-23.171 6.041-33.647l-0.221 0.67c0.042-0.464 0.073-1.010 0.073-1.55s-0.025-1.086-0.077-1.623l0.006 0.072h-78.359c-0.879 0.081-1.897 0.129-2.932 0.129-16.465 0-30.036-12.355-31.962-28.301l-0.019-0.154s0 0 0-1.944v-4.27c-0.069-0.986-0.103-2.139-0.103-3.297s0.034-2.311 0.113-3.453l-0.010 0.155c3.563-13.495 15.663-23.281 30.049-23.281 0.21 0 0.419 0.003 0.628 0.008l-0.025-0.001h8.921v-191.636h-5.82c-0.648 0.046-1.406 0.077-2.165 0.077-16.223 0-29.616-12.151-31.568-27.851l-0.019-0.155v-11.64c3.298-14.315 15.942-24.834 31.034-24.834 0.132 0 0.275 0.001 0.406 0.003h82.996c0.025-0.403 0.034-0.88 0.034-1.36s-0.017-0.956-0.037-1.427l0.004 0.068c-3.822-10.378-6.095-22.362-6.204-34.859v-0.051c0-38.797 0-77.582 0-116.38-0.003-0.254-0.004-0.552-0.004-0.856 0-48.993 34.665-89.889 80.807-99.5l0.656-0.118h583.067l6.204 2.326c10.571 3.978 18.259 13.352 19.765 24.675l0.021 0.157c0.105 0.466 0.167 1.006 0.167 1.55s-0.062 1.084-0.179 1.599l0.011-0.048v3.876c-1.117 5.021-2.318 9.176-3.741 13.228l0.246-0.813c-4.964 10.615-15.56 17.842-27.851 17.842-0.025 0-0.063 0-0.088 0h-9.69v191.255h6.983c0.442-0.025 0.964-0.030 1.49-0.030 16.37 0 29.919 12.070 32.235 27.792l0.025 0.181s0 0 0 2.326v9.696c-3.453 14.125-15.992 24.442-30.947 24.442-0.17 0-0.338-0.002-0.498-0.005h-82.215c0 5.82 3.495 11.247 4.651 16.685 1.166 6.256 1.863 13.493 1.943 20.884l0.001 0.071c0 38.797 0 77.582 0 116.38 0 0.076 0 0.156 0 0.236 0 12.152-2.133 23.802-6.047 34.601l0.228-0.703s0 0 0 3.495h80.302c0.659-0.048 1.43-0.077 2.209-0.077 16.306 0 29.775 12.122 31.902 27.845l0.023 0.169c-0.022 0.285-0.025 0.63-0.025 0.966s0.013 0.681 0.025 1.013l-0.003-0.045v4.27c0.086 0.988 0.137 2.139 0.137 3.297s-0.051 2.311-0.15 3.449l0.013-0.145c-3.68 13.574-15.789 23.437-30.239 23.662h-9.335v191.255zM206.691 352.182h-3.876v63.616h206.378c0.678-0.052 1.471-0.077 2.26-0.077 12.145 0 22.681 6.888 27.909 16.976l0.077 0.179c2.376 4.387 3.774 9.59 3.774 15.133 0 17.78-14.412 32.202-32.202 32.202-0.099 0-0.199-0.001-0.298-0.002h-207.921v63.616h480.653c21.422 0 38.797-17.365 38.797-38.797v0-111.728c0-21.422-17.365-38.797-38.797-38.797v0zM785.882 287.778h3.495v-63.235h-206.378c-0.522 0.025-1.129 0.046-1.741 0.046-17.81 0-32.248-14.438-32.248-32.248 0-17.198 13.462-31.245 30.415-32.197l0.080-0.005h209.872v-63.235h-480.653c-0.147-0.003-0.327-0.004-0.495-0.004-19.232 0-35.2 13.994-38.264 32.367l-0.025 0.231c-0.089 1.047-0.142 2.259-0.142 3.495s0.053 2.447 0.155 3.651l-0.013-0.157v112.503c0 21.422 17.365 38.797 38.797 38.797v0zM789.377 608.222h-481.81c-21.422 0-38.797 17.365-38.797 38.797v0 111.335c0 21.422 17.365 38.797 38.797 38.797v0h481.81v-60.909h-206.771c-0.502 0.025-1.099 0.043-1.688 0.043-15.528 0-28.458-11.128-31.251-25.835l-0.027-0.196c-0.442-1.998-0.7-4.298-0.7-6.661 0-17.071 13.286-31.041 30.083-32.13l0.093-0.006h210.264z" />
<glyph unicode="&#xe981;" glyph-name="Dot" d="M744 448c0-128.136-103.864-232-232-232s-232 103.864-232 232c0 128.137 103.863 232 232 232s232-103.863 232-232z" />
<glyph unicode="&#xe982;" glyph-name="Newsletter_1" d="M859.263 797.641h-694.339c-61.982 0-112.364-50.382-112.364-112.364v-474.554c0-61.982 50.382-112.364 112.364-112.364h694.145c61.982 0 112.364 50.382 112.364 112.364v474.362c0.192 61.982-50.194 112.556-112.172 112.556zM920.295 210.723c0-33.652-27.38-61.032-61.032-61.032h-694.339c-33.652 0-61.032 27.38-61.032 61.032v474.362c0 33.652 27.38 61.032 61.032 61.032h694.145c33.652 0 61.032-27.38 61.032-61.032v-474.362h0.192zM632.065 453.893l224.728 201.534c10.458 9.507 11.408 25.668 1.9 36.313-9.507 10.458-25.668 11.408-36.313 1.9l-309.904-278.156-60.462 53.999c-0.192 0.192-0.379 0.379-0.379 0.571-1.332 1.332-2.661 2.468-4.181 3.611l-246.023 220.163c-10.645 9.507-26.81 8.554-36.313-2.091s-8.554-26.81 2.091-36.313l227.39-203.246-226.44-211.993c-10.266-9.696-10.837-25.855-1.141-36.313 5.134-5.323 11.978-8.176 18.821-8.176 6.273 0 12.549 2.283 17.493 6.843l229.864 215.033 62.361-55.705c4.944-4.373 11.029-6.464 17.112-6.464s12.357 2.283 17.112 6.656l64.072 57.417 228.531-217.123c4.944-4.752 11.408-7.034 17.68-7.034 6.843 0 13.498 2.661 18.634 7.984 9.696 10.266 9.317 26.618-0.949 36.313l-225.678 214.27z" />
<glyph unicode="&#xe983;" glyph-name="Explain" d="M757.333 754.667h-490.667c-33.733 0-61.027-27.6-61.027-61.333l-0.307-552 122.667 122.667h429.333c33.733 0 61.333 27.6 61.333 61.333v368c0 33.733-27.6 61.333-61.333 61.333zM389.333 386.667h-61.333v61.333h61.333v-61.333zM389.333 478.667h-61.333v61.333h61.333v-61.333zM389.333 570.667h-61.333v61.333h61.333v-61.333zM604 386.667h-153.333v61.333h153.333v-61.333zM696 478.667h-245.333v61.333h245.333v-61.333zM696 570.667h-245.333v61.333h245.333v-61.333z" />
<glyph unicode="&#xe984;" glyph-name="Authors" d="M754.091 676.095c-1.628-10.876-3.896-21.71-4.765-32.648-3.896-45.917-13.374-88.355-27.825-128.415l1.099 3.489c-3.386-9.757-10.126-12.516-18.972-14.392-29.696-6.263-59.315-12.883-89.185-19.509 12.883-17.236 36.512-24.204 84.617-24.518-10.539-21.252-19.509-42.156-30.786-61.619-17.767-30.107-37.906-56.125-60.869-79.342l0.034 0.035c-17.449-17.883-33.69-25.343-57.98-14.967-18.582 7.939-38.772 12.134-59.055 18.234 5.459-25.354 20.741-42.381 41.059-56.71-18.212-12.645-38.071-13.524-58.328-13.925-1.204-0.031-2.626-0.053-4.050-0.053-23.715 0-46.205 5.235-66.378 14.614l0.972-0.405c-14.895 6.849-24.405 3.3-35.774-5.97-32.288-26.311-65.274-51.761-97.992-77.548 4.354 8.702 7.142 18.735 13.35 25.853 16.91 19.287 35.329 37.348 53.085 56.012 10.224 10.787 21.078 21.186 29.967 32.952 5.036 6.642 7.203 15.597 10.037 23.726 14.73 42.275 38.878 77.745 73.892 106.040 17.106 13.817 32.789 29.348 49.287 43.972q52.452 46.584 105.042 93.027 21.968 19.472 43.892 39.052 47.734 42.85 95.404 85.801c2.93 2.637 5.21 5.97 7.801 8.983zM548.304 155.466c-5.714 2.073-11.711 3.656-17.073 6.326-11.78 5.796-14.685 14.359-9.719 26.559 4.519 11.125 3.104 14.156-9.226 12.883-24.442-2.434-48.798-5.854-73.060-9.708-32.415-5.142-64.688-11.125-97.032-16.639-18.619-3.16-37.272-6.1-55.262-9.041 14.895 20.413 37.391 25.268 61.291 28.513 26.935 3.667 53.682 9.367 80.556 13.806q39.813 6.604 79.76 12.471c14.663 2.129 30.238-6.172 33-19.051 1.487-6.936-1.921-14.919-3.642-25.764 8.079-0.152 17.344-1.769 26.069-0.271 51.435 8.805 102.709 18.506 154.155 27.286 3.408 0.575 7.695-3.909 11.57-6.056-2.344-3.375-4.19-9.063-7.178-9.746-20.351-4.686-40.908-8.596-61.503-12.134-35.481-6.1-71.048-11.711-106.561-17.648-0.527-0.096-0.868-1.172-1.302-1.849z" />
<glyph unicode="&#xe985;" glyph-name="Categories-2" d="M568.077 162.623c-16.765 5.38-22.436 17.008-22.232 34.281q0.985 83.216 0 166.432c-0.242 19.632 13.74 30.605 30.724 30.481q84.696-0.656 169.423 0c15.792 0.108 30.856-9.462 30.616-30.554-0.62-55.483-0.205-110.974-0.205-166.432 0-21.016-3.436-26.312-22.124-34.196zM661.049 357.931c-21.32 0-42.64 0-63.963 0-11.43 0-15.864-4.436-15.864-15.792q0-63.937 0-127.884c0-11.319 4.412-15.792 15.792-15.792q63.963-0.084 127.92 0c11.964 0 16.197 4.265 16.208 16.109q0 63.572 0 127.168c0 11.832-4.265 16.109-16.185 16.135-21.272 0.096-42.592 0.060-63.914 0.060zM269.845 162.623c-18.549 7.57-22.412 13.423-22.412 34.016q0 82.488 0 164.976c0 22.1 9.9 32.048 31.781 32.048 55.736 0 111.472-0.352 167.196 0.205 17.856 0.18 32.060-10.935 31.756-31.804-0.812-54.984-0.692-109.992 0-164.976 0.205-17.249-5.526-28.864-22.089-34.49zM282.844 278.639q0-32.324 0-64.655c0-11.188 4.068-15.453 15.196-15.467q64.681-0.108 129.355 0c10.544 0 15.22 4.556 15.244 14.98q0.132 64.681 0 129.331c0 10.424-4.748 15.052-15.16 15.076q-65.028 0.096-130.073 0c-10.268 0-14.576-4.412-14.576-14.576-0.024-21.576 0.012-43.128 0.012-64.692zM661.328 460.49c-28.6 0-57.191 0-85.792 0-19.44 0-29.424 10.118-29.436 29.604q0 85.414 0 170.821 0 29.751 29.996 29.763 85.425 0 170.856 0c19.44 0 29.436-10.070 29.448-29.592q0-85.414 0-170.821c0-19.898-9.972-29.751-30.008-29.788q-42.532-0.048-85.064 0.012zM741.192 575.060c0 21.564 0 43.128 0 64.704 0 10.935-4.7 15.792-15.269 15.792q-64.704 0.084-129.43 0c-10.316 0-15.232-4.859-15.244-15.124q-0.096-64.692 0-129.393c0-10.675 4.859-15.38 15.66-15.391q64.384 0 128.699 0c10.861 0 15.576 4.664 15.6 15.416 0.024 21.297-0.012 42.676-0.012 63.999zM363.124 690.699q42.896 0 85.78 0c18.356 0 28.972-10.52 28.972-28.66q0-86.484 0-172.98c0-17.796-10.532-28.501-28.388-28.524q-86.887-0.144-173.72 0c-17.652 0-28.16 10.256-28.22 27.944q-0.29 87.212 0 174.424c0.060 17.58 10.788 27.758 28.363 27.795 29.058 0.048 58.144 0 87.212 0zM282.844 576.434c0-22.052 0-44.083 0-66.136 0-9.876 4.771-14.576 14.76-14.576q65.065-0.072 130.135 0c9.792 0 14.848 4.859 14.873 14.724q0.18 65.051 0 130.098c0 10.169-5.164 15.064-15.38 15.076q-64.704 0.084-129.405 0c-10.316 0-14.98-4.859-15.004-15.184q-0.024-32.024 0.024-63.999z" />
<glyph unicode="&#xe986;" glyph-name="E-books" d="M705.74 426.165q0-110.16 0-220.32c0-22.33-14.58-36.842-36.963-36.842-104.204 0-208.4 0.26-312.59-0.24-18.225-0.090-38.148 12.083-37.93 37.84 0.36 42.69 0.11 85.38 0.12 128.068q0 122.070 0 244.090c0 22.81 0.284 45.62 0 68.42-0.405 24.67 18.793 37.48 37.761 37.39 104.542-0.46 209.066-0.21 313.63-0.22 21.017 0 35.935-14.81 35.948-35.79q0.020-111.21 0.020-222.4zM664.31 445.277q0 90.192 0 180.378c0 10.947-5.21 16.22-16.070 16.23h-184.020q-43.54 0-87.085 0c-9.4 0-14.72-5.22-15.009-14.646-0.12-3.96-0.079-7.949-0.079-11.92v-224.94q0-62.193 0-124.39c0-11.32 5.1-16.92 15.541-16.92q134.766 0 269.52 0c12.337 0 17.173 5 17.173 17.38q0.030 89.382 0.020 178.82zM497.28 211.036c-0.002-0.076-0.004-0.163-0.004-0.248 0-8.464 6.861-15.323 15.323-15.323s15.323 6.861 15.323 15.323c0 8.372-6.716 15.178-15.057 15.323h-0.014c-0.115 0.006-0.257 0.006-0.393 0.006-8.348 0-15.121-6.74-15.179-15.069v-0.006zM506.252 353.327c-12.906 12.881-29.624 21.951-48.307 25.382l-0.563 0.088c-7.231 1.334-15.886 2.327-24.688 2.774l-0.49 0.018c-8.855 0.55-11.757 3.12-11.757 11.93q0 61.91 0 123.84c0 8.94 2.75 11.7 11.878 11.37 21.090-0.768 41.037-5.253 57.96-18.829 2.847-2.374 5.41-4.818 7.804-7.429l0.054-0.056c5.135-5.185 8.311-12.325 8.311-20.202 0-0.408-0.006-0.816-0.027-1.224l0.004 0.056c-0.46-40.578-0.21-81.174-0.21-121.76zM519.54 353.327v87.85c0 14.852-0.21 29.709 0.14 44.55 0.127 3.923 1.335 7.538 3.331 10.584l-0.048-0.079c12.095 17.8 29.97 26.48 50.46 30.33 6.498 1.144 14.115 1.916 21.876 2.131l0.224 0.006c6.438 0.32 9.75-2.932 9.762-9.26q0.1-63.98 0-127.98c0-6.667-3.548-9.69-11.22-9.74-14.187-0.033-27.801-2.436-40.488-6.832l0.876 0.262c-13.682-4.757-25.369-12.225-34.912-21.822l-0.006-0.006zM492.89 347.857c-13.89 0.95-26.808 2.98-39.611 2.43-16.3-0.7-32.53-3.282-48.73-5.47-7.99-1.094-12.567 1.76-12.579 9.85q-0.151 67.12 0 134.22c0 8.22 4.28 10.826 15.020 9.49v-5.47c0-32.84 0.381-65.675-0.163-98.46-0.25-15.030 8.43-26.337 26.191-26.324 0.332 0.006 0.724 0.006 1.118 0.006 17.070 0 33.094-4.467 46.973-12.296l-0.478 0.248c4.14-2.31 7.89-5.277 12.26-8.22zM618.8 498.471c12.27 1.094 15.060-1.457 15.060-12.905v-128c0-1.203 0.066-2.42 0-3.621-0.538-7.441-4.95-10.76-12.26-9.17-23.762 5.18-47.723 7.344-71.98 4.62-5.265-0.59-10.487-1.59-17.030-2.593 6.908 6.54 15.226 11.664 24.447 14.864l0.478 0.144c10.536 3.918 22.71 6.244 35.404 6.379l0.059 0.001c13.739 0.151 22.34 6.075 25.12 17.173 0.453 2.147 0.715 4.619 0.715 7.151 0 0.563-0.014 1.13-0.041 1.686l0.005-0.079q0.066 49.258 0 98.46z" />
<glyph unicode="&#xe987;" glyph-name="E-magazine" d="M806.044 331.901c-1.158-4.779-2.024-9.662-3.521-14.344-6.29-19.752-18.609-34.411-37.306-43.531-2.179-1.057-4.505-1.822-7.26-2.918v267.055c0 22.774 0 45.535 0 68.294 0 16.043-8.469 24.421-24.395 24.434q-26.12 0-52.253 0h-7.211l83.34-85.279c-2.704-0.253-4.304-0.528-5.888-0.528-13.021 0-26.029-0.101-39.005 0-23.338 0.175-38.499 15.628-38.512 39.115 0 15.285 0 30.562 0 46.261h-151.409v-313.913h18.773v-48.942h-6.355q-122.608 0-245.215 0c-36.489 0-64.684 23.904-70.823 59.9-0.306 1.261-0.671 2.338-1.11 3.376l0.053-0.14v286.016c0.393 0.868 0.764 1.909 1.051 2.986l0.032 0.148c5.324 28.208 21.036 47.519 48.362 56.956 3.774 1.258 7.626 2.062 11.439 3.081h466.325c0.59-0.35 1.276-0.65 1.993-0.873l0.069-0.018c30.685-6.013 48.991-24.875 56.754-54.653 0.754-2.905 1.371-5.849 2.062-8.806zM501.369 316.578v313.997c-1.383 0.125-2.516 0.303-3.599 0.303q-105.057 0-210.114 0c-10.544 0-18.182-6.076-20.874-16.257-0.535-2.345-0.84-5.035-0.84-7.796 0-0.457 0.006-0.91 0.026-1.364l-0.003 0.065q0-131.754 0-263.508c0-17.21 8.177-25.388 25.163-25.388h210.237zM524.768 656.408c-0.22 7.604-6.436 13.688-14.074 13.688-7.775 0-14.078-6.303-14.078-14.078 0-7.723 6.215-13.991 13.914-14.076h0.006c8.229-0.125 14.266 6.063 14.229 14.467zM602.739 173.398c0 12.58 0.149 25.264-0.162 37.896-0.232 2.546-1.468 4.761-3.306 6.277l-0.018 0.013c-24.344 17.839-37.202 41.356-36.928 71.867 0.266 31.768 0.441 63.536 0 95.304-0.113 7.976 6.856 15.375 17.612 15.285s17.729-5.598 17.852-15.096c0.162-12.055 0-24.106 0-36.664 5.336 1.699 7.913 4.292 7.889 10.064-0.214 38.839-0.137 77.692-0.089 116.542 0 11.059 4.553 17.149 14.104 19.311 1.181 0.291 2.535 0.458 3.928 0.458 9.278 0 16.819-7.426 17.007-16.662v-0.018c0.214-17.411 0.077-34.838 0.077-52.253v-6.619c7.185 6.77 14.644 9.361 23.026 5.512s10.453-11.523 10.064-20.948c6.666 7.321 13.967 10.667 22.897 6.809 11.562-5.032 10.869-15.388 10.441-24.661 6.154 0.415 12.115 1.609 17.904 1.005 7.723-0.804 12.317-6.227 12.329-13.449 0-30.612 0.467-61.247-0.363-91.848-0.642-23.831-11.7-43.194-29.769-58.452-3.385-2.843-4.909-5.586-4.805-10.064 0.303-13.196 0.125-26.421 0.125-39.621zM552.691 488.556v27.68h173.625v-27.68h-9.085c-17.612 0-35.23 0-52.765-0.065-3.247 0-5.032 0.817-6.465 4.027-6.666 14.746-18.319 23.061-34.485 23.176-16.471 0.125-27.981-8.53-35.23-23.176-0.791-1.585-2.63-3.774-4.040-3.774-10.317-0.326-20.595-0.188-31.554-0.188zM645.492 581.824c2.101-9.325 4.090-18.17 6.154-27.365h-98.829v27.365zM726.342 421.771c-8.002 1.297-15.55 2.808-23.098 3.638-11.614 1.258-21.387 6.29-30.121 13.728-1.66 1.42-4.102 2-6.29 2.691-5.953 1.887-5.966 1.835-4.831 8.981h64.366zM552.537 450.848h32.436c0-8.644 0.089-17.314-0.149-25.982 0-0.668-2.263-1.799-3.484-1.822-8.404-0.162-16.808-0.188-25.163 0-1.258 0-3.449 1.549-3.473 2.44-0.279 8.378-0.162 16.722-0.162 25.365zM297.431 554.485v27.24h173.729v-27.24zM297.457 488.997v27.288h173.625v-27.288zM297.408 422.893v27.793h174.040c0-8.404 0.089-16.924-0.137-25.426 0-0.804-1.965-2.062-3.132-2.238-1.354-0.125-2.926-0.196-4.518-0.196-1.029 0-2.053 0.030-3.069 0.089l0.139-0.006h-163.321zM471.523 357.671h-173.813v27.68c1.9 0.089 3.774 0.266 5.598 0.266 53.926 0 107.851-0.077 161.774 0.137 5.538 0 6.82-1.775 6.53-6.832-0.376-6.832-0.089-13.702-0.089-21.25z" />
<glyph unicode="&#xe988;" glyph-name="Poetry" d="M612.936 213.891c-13.324 11.22-28.705 20.595-45.397 27.419l-1.147 0.415c-31.13 12.84-63.908 17.968-97.24 20.288-9.116 0.636-18.264 0.68-27.351 1.478-2.281 0.337-4.193 1.674-5.302 3.542l-0.018 0.034c-6.368 17.508-12.752 34.742-11.82 54.228 1.24 24.842-6.103 32.386-31.311 36.408 1.316 14.6 2.584 29.286 3.976 43.96q4.432 46.988 9.056 93.992c0.502 5.216 0.828 10.459 1.478 15.666 0.724 6.028 4.092 9.531 10.344 9.678 4.964 0.104 9.927 0 15.338 0 2.468 27.248 4.861 53.74 7.388 81.268 10.597-1.108 20.687-1.998 30.824-3.236 46.604-5.775 91.272-18.116 131.64-42.626 10.344-6.309 17.348-6.088 27.6 0.104 40.428 24.364 84.919 37.132 131.612 42.662 9.927 1.181 19.904 2.055 30.808 3.176l7.947-81.355c5.084 0 9.812 0.104 14.557 0 6.944-0.174 10.459-3.488 11.112-10.344q7.653-81.772 15.279-163.512c2.956-31.34 6.088-62.663 9.116-93.992 0.236-2.496 0.267-5.008 0.428-8.408-12.631-3.308-25.296-6.68-37.978-9.927q-95.011-24.44-189.932-48.672c-1.919-0.522-4.123-0.819-6.396-0.819-1.962 0-3.877 0.223-5.714 0.649l0.171-0.033c-52.308 13.299-104.527 26.921-156.82 40.236-4.048 1.034-6.295 2.731-7.476 6.664-2.232 7.388-4.788 14.584-7.668 23.301l172.276-43.927zM437.824 290.727c21.5-1.892 42.2-3.148 62.754-5.616 40.044-4.816 78.048-16.12 112.196-38.417 3.516-2.29 6.015-2.704 9.664-0.104 4.813 3.379 10.372 6.763 16.148 9.794l0.844 0.403c36.94 19.827 76.836 27.883 118.136 31.031 12.456 0.96 24.941 1.478 37.872 2.128-8.762 95.17-17.465 189.74-26.245 284.78-3.856-0.559-6.752-1.020-9.664-1.388-48.95-6.22-94.568-21.588-135.040-50.342-6.103-4.329-10.196-3.942-16.062 0.252-25.317 18.3-55.022 32.42-87.102 40.586l-1.806 0.389c-18.012 4.432-36.38 7.596-55.422 11.511-8.852-96.12-17.553-190.524-26.272-285.001zM621.652 212.414l193.952 49.708c-0.088 0.664-0.192 1.316-0.296 1.98-18.22-0.697-36.468-0.898-54.672-2.202-33.348-2.394-66.035-8.156-96.888-21.78-15.44-6.768-29.908-15.236-42.094-27.702zM280.325 299.285c0 9.944-0.104 19.52 0 29.094 0.104 6.516 3.636 10.167 10.24 10.18q52.736 0.163 105.454 0c6.604 0 10.889-3.786 10.108-10.167-3.942-32.137 10.993-59.914 19.918-89.071 3.263-10.668 7.152-21.131 10.597-31.74 3.812-11.688-3.254-22.076-15.588-22.164q-77.723-0.267-155.46 0c-12.22 0-19.488 10.651-15.618 22.164 7.772 23.332 15.813 46.56 23.64 69.892 1.229 3.708 3.148 4.759 6.916 4.711 17.123-0.192 34.252-0.104 51.36 0 7.936 0 11.54 2.632 11.732 8.304s-4.152 9.604-11.57 9.648q-22.268 0.132-44.52 0c-2.697-0.166-5.171-0.471-7.599-0.915l0.388 0.059zM246.267 601.735c10.344-14.052 20.065-27.188 29.64-40.456 6.015-8.32 11.408-17.096 17.732-25.12 4.337-5.355 6.962-12.249 6.962-19.758 0-0.597-0.018-1.192-0.052-1.781l0.007 0.083c-0.267-11.408 0.236-22.828 0.324-34.236 0-5.39-0.192-11.304 6.637-12.484 7.388-1.274 7.902 5.348 9.735 10.048 1.64 4.227 2.956 8.572 4.861 13.833 6.343-10.070 11.115-21.83 13.63-34.414l0.11-0.665c3.942-19.445 4.020-38.892-1.67-58.172-0.086-0.516-0.137-1.102-0.137-1.708 0-1.923 0.502-3.727 1.391-5.288l-0.027 0.052c5.913-11.82 12.088-23.436 18.78-36.292-8.377 0-15.768-0.192-23.111 0.174-1.478 0-3.209 2.143-4.048 3.708-4.048 7.388-7.698 15.012-11.82 22.372-1.15 2.1-2.926 3.738-5.073 4.688l-0.068 0.027c-24.692 8.49-45.106 24.111-59.354 44.379l-0.256 0.378c-13.58 19.001-20.687 40.988-28.856 62.46-1.478 3.797-2.779 7.64-4.596 12.604 4.432 0 8.23 0 11.968 0 4.536 0 8.156 1.611 8.984 6.592s-2.143 7.076-6.25 8.364c-0.174 0.061-0.389 0.124-0.618 0.172l-0.035 0.007c-18.204 2.53-25.903 14.244-30.528 31.031-7.8 28.519-17.802 56.429-26.299 84.783-1.301 4.481-2.051 9.628-2.051 14.953 0 1.843 0.089 3.665 0.267 5.461l-0.018-0.229c0.784 9.296 8.408 13.109 16.964 9.22 3.704-1.709 6.893-3.799 9.726-6.288l-0.044 0.041c3.41-2.956 6.015-6.886 9.368-9.927 15.72-14.244 23.244-31.428 19.844-52.84-0.267-1.713-0.252-4.123 0.74-5.243 1.806-2.068 4.3-4.432 6.739-4.744 1.962-0.222 4.876 2.068 6.25 4.035 1.806 2.686 2.539 6.103 4.256 10.196z" />
<glyph unicode="&#xe989;" glyph-name="university" d="M767.996 584.38v-353.139c-0.39-0.558-0.722-1.203-0.966-1.887l-0.018-0.055c-6.436-34.996-34.287-58.615-69.589-58.637q-185.665-0.078-371.423 0c-0.144-0.002-0.316-0.003-0.486-0.003-31.308 0-57.771 20.752-66.381 49.248l-0.126 0.49c-1.145 3.589-1.998 7.222-2.994 10.833v353.15c0.971 3.818 1.806 7.68 2.935 11.43 8.862 29.093 35.345 49.937 66.736 50.193h0.030c8.684 0.138 17.37 0 26.444 0 0 6.858-0.102 12.894 0 18.949 0.218 11.118 6.858 17.634 17.934 17.658q30.273 0 60.568 0c10.926 0 17.335-6.39 17.476-17.302 0.078-6.229 0-12.458 0-18.938h126.855c0 6.414-0.090 12.469 0 18.524 0.196 11.142 6.858 17.694 17.85 17.716q29.716 0 59.428 0c12.731 0 18.665-6.011 18.709-18.927 0-5.804 0-11.61 0-17.694 9.884 0 18.833 0.354 27.749 0 29.716-1.396 51.065-15.556 63.426-42.629 2.754-5.978 3.918-12.642 5.838-18.982zM671.002 622.724c0-6.731 0.055-12.57 0-18.48-0.114-11.236-6.502-17.52-17.826-17.542q-29.716 0-59.428 0c-12.162 0-18.606 6.436-18.709 18.63 0 5.634 0 11.258 0 16.833h-126.855c0-6.090 0-11.598 0-17.142-0.078-12.114-6.229-18.284-18.196-18.354q-29.716 0-59.428 0c-11.716 0-18.284 6.57-18.354 18.447-0.055 5.716 0 11.313 0 18.066-12.57-0.558-24.764 0.318-36.365-1.909-22.481-4.309-36.665-23.771-36.676-47.826q0-165.086 0-330.166c0-29.586 20.193-49.601 49.975-49.601q182.797 0 365.575 0c30.077 0 50.093 19.975 50.116 50.045q0 48.845 0 97.68 0 115.964 0 231.917c0 21.404-10.996 38.673-29.453 45.989-14.31 5.705-29.213 2.79-44.378 3.415zM396.929 428.005c14.286 7.134 27.666 13.794 41.040 20.489 25.975 12.982 51.977 25.909 77.86 39.041 1.185 0.737 2.623 1.17 4.167 1.17s2.982-0.438 4.2-1.191l-0.033 0.018q57.142-28.822 114.591-57.244c3.738-1.842 4.734-4.069 4.71-7.931-0.15-21.131-0.185-42.284 0.055-63.404 0.138-3.282 1.191-6.294 2.908-8.814l-0.039 0.058c4.698-6.916 9.93-13.462 15.282-20.573l-27.382-36.557-27.426 36.458c5.040 6.764 10.287 13.451 15.076 20.455 1.734 2.43 2.85 5.418 3.050 8.647l0.004 0.048c0.284 17.898 0.15 35.793 0.138 53.716 0 1.658-0.15 3.305-0.262 5.658-2.502-1.145-4.571-2.070-6.48-3.087q-47.040-24.365-94.069-48.797c-2.596-1.35-4.626-2.215-7.782-0.57-38.695 20.261-77.52 40.298-116.307 60.4-0.786 0.354-1.53 0.916-3.294 2.010zM512.742 557.053q73.144 0 146.193 0c8.356 0 14.226-4.458 16.604-12.15 2.286-7.2-0.090-15.030-6.753-18.845-3.569-1.986-7.82-3.162-12.351-3.175h-0.006q-111.075-0.273-222.144-0.138c-22.457 0-44.924-0.078-67.429 0-8.994 0-16.17 6.318-17.142 14.466-1.145 8.958 3.51 16.686 11.771 19.073 2.058 0.486 4.422 0.762 6.846 0.762 0.57 0 1.134-0.018 1.698-0.044l-0.078 0.006q71.404 0.078 142.789 0.044zM512.709 259.925q73.144 0 146.204 0c8.31 0 14.238-4.47 16.626-12.138 2.286-7.2-0.078-15.042-6.731-18.857-3.569-1.986-7.82-3.162-12.351-3.175h-0.006q-138.206-0.262-276.419-0.126c-4.375 0-8.754-0.078-13.134 0-10.158 0.24-17.324 7.451-17.302 17.313s7.156 16.962 17.476 16.974q72.82 0.066 145.634 0.011zM447.064 307.147v76.855c2.058-0.905 3.774-1.59 5.406-2.4 21.233-10.582 42.48-21.12 63.644-31.853 1.113-0.678 2.463-1.081 3.905-1.081s2.79 0.402 3.937 1.098l-0.032-0.018c20.993 10.626 42.077 21.087 63.131 31.589 1.68 0.834 3.371 1.625 5.622 2.706v-76.9z" />
<glyph unicode="&#xe98a;" glyph-name="blank79" d="M0.001-32.972l992.974 992.974 31.030-31.030-992.974-992.974-31.030 31.030z" />
<glyph unicode="&#xe98b;" glyph-name="blank80" d="M0.001-32.972l992.974 992.974 31.030-31.030-992.974-992.974-31.030 31.030z" />
<glyph unicode="&#xe98c;" glyph-name="favorite" d="M637.894 682.668c-47.563 0-95.126-22.381-125.895-58.753-30.769 36.372-78.332 58.753-125.895 58.753-86.737 0-153.879-67.142-153.879-153.879 0-106.316 95.126-193.053 240.615-321.749l39.174-36.372 39.174 36.372c142.688 131.498 240.615 218.235 240.615 321.749-0.033 86.737-67.174 153.879-153.911 153.879zM514.801 246.214h-2.802l-2.802 2.785c-134.3 120.308-221.020 198.64-221.020 279.773 0 55.951 41.959 97.927 97.927 97.927 41.959 0 83.935-27.984 100.729-67.142h53.166c13.959 39.174 55.935 67.158 97.894 67.158 55.951 0 97.927-41.959 97.927-97.927 0-81.134-86.737-159.482-221.020-282.575z" />
<glyph unicode="&#xe98d;" glyph-name="favorited" d="M511.999 170.668l-38.961 38.961c-144.687 127.992-239.305 214.254-239.305 319.996 0 86.262 66.781 153.043 153.043 153.043 47.301 0 94.601-22.266 125.223-58.442 30.605 36.176 77.906 58.442 125.223 58.442 86.262 0 153.043-66.781 153.043-153.043 0-105.742-94.601-192.004-239.305-319.996l-38.961-38.961z" />
<glyph unicode="&#xe98e;" glyph-name="share" d="M356.347 523.906c20.583 0 38.597-7.723 51.457-20.583l182.677 105.483c-2.569 5.137-2.569 12.86-2.569 18.014 0 43.735 33.443 77.194 77.194 77.194s77.194-33.443 77.194-77.194-33.443-77.194-77.194-77.194c-20.583 0-38.597 7.723-51.457 20.583l-182.677-105.483c2.569-5.137 2.569-12.86 2.569-18.014s0-12.86-2.569-18.014l182.677-108.052c12.86 12.86 30.874 20.583 51.457 20.583 41.166 0 74.609-33.443 74.609-74.609s-33.443-74.609-74.609-74.609-74.609 33.443-74.609 74.609c0 5.137 0 10.291 2.569 18.014l-182.677 108.069c-12.86-12.86-30.874-20.583-51.457-20.583-43.735 0-77.194 33.443-77.194 77.194s30.858 74.592 74.609 74.592z" />
<glyph unicode="&#xe98f;" glyph-name="tag" d="M770.74 431l-256.36 256.020c-20.827 19.168-48.299 31.435-78.581 32.965l-0.299 0.019h-149.26c-12.712-0.019-24.176-5.36-32.285-13.925l-0.019-0.019c-8.383-7.902-13.615-19.067-13.615-31.469 0-0.291 0.006-0.597 0.019-0.875l-0.001 0.053v-149.26c0.387-15.219 3.855-29.549 9.802-42.487l-0.282 0.667c5.357-14.185 13.211-26.301 23.139-36.399l-0.019 0.019 256.7-257.040c8.033-8.186 19.205-13.271 31.571-13.271 0.257 0 0.514 0.004 0.767 0.012l-0.042-0.001c0.087-0.001 0.2-0.002 0.317-0.002 12.599 0 24.023 5.061 32.333 13.271l-0.010-0.009 176.12 176.8c8.187 7.669 13.295 18.534 13.295 30.593 0 0.597-0.019 1.2-0.041 1.787l0.005-0.087c0.006 0.189 0.009 0.427 0.009 0.665 0 12.497-5.073 23.803-13.268 31.979l-0.001 0.001zM387.56 572.44c-8.276-8.397-19.769-13.601-32.47-13.601s-24.194 5.204-32.459 13.59l-0.011 0.011c-8.195 8.145-13.272 19.41-13.272 31.877 0 0.269 0.005 0.538 0.013 0.805l-0.001-0.046c-0.007 0.223-0.011 0.47-0.011 0.733 0 12.361 5.085 23.547 13.258 31.571l0.014 0.013c8.323 8.281 19.807 13.383 32.473 13.383 25.315 0 45.851-20.419 46.067-45.675v-0.019c0.010-0.257 0.019-0.563 0.019-0.869 0-12.497-5.221-23.76-13.585-31.756l-0.019-0.019z" />
<glyph unicode="&#xe990;" glyph-name="glasses" d="M360.639 576.001c-43.119 0-81.214-25.682-103.928-55.148h-47.573c-12.157 0-21.991-12.386-21.991-24.606s9.835-24.566 21.979-24.566h28.628c-1.878-9.809-2.944-16.688-2.944-25.964 0.035-69.461 56.369-125.744 125.83-125.716 69.382-0.104 125.711 56.056 125.815 125.438 0 0.017 0 0.033 0 0.050 0 9.251-1.078 16.37-2.969 26.192h65.782c-1.878-9.809-2.942-16.688-2.942-25.964 0.028-69.458 56.357-125.743 125.815-125.716 69.382-0.127 125.73 56.014 125.857 125.396 0 0.031 0 0.061 0 0.092-0.096 8.824-1.108 17.615-3.021 26.229h19.847c12.22 0 22.028 12.411 22.028 24.529s-9.809 24.606-21.979 24.606h-38.804c-22.676 29.465-60.784 55.148-103.928 55.148s-81.212-25.682-103.901-55.148h-103.7c-22.676 29.466-60.782 55.148-103.901 55.148zM360.639 528.846c45.248-0.119 81.862-36.84 81.848-82.088 0.006-45.252-36.608-81.975-81.86-82.101l-0.040-0.015c-45.243 0.146-81.838 36.872-81.823 82.115-0.014 45.259 36.617 81.985 81.875 82.088v0zM672.129 528.846c45.26-0.104 81.894-36.827 81.887-82.088 0.006-45.263-36.625-81.989-81.887-82.101l-0.037-0.015c-45.241 0.146-81.833 36.874-81.811 82.115-0.021 45.251 36.597 81.976 81.848 82.088v0z" />
<glyph unicode="&#xe991;" glyph-name="facebook" d="M789.578 760h-555.157c-19.365 0-34.422-15.067-34.422-34.422v-555.157c0-19.365 15.067-34.422 34.422-34.422 0 0 0 0 0 0h299.089v241.001h-80.689v94.677h80.689v69.934c0 80.689 49.489 124.8 121.578 124.8 24.746 0 48.42-1.072 72.090-3.222v-83.911h-49.489c-38.734 0-46.267-18.289-46.267-46.267v-60.244h93.6l-11.836-94.677h-82.845v-242.066h159.223c19.365 0 34.422 15.067 34.422 34.422v0 555.157c0 19.365-15.067 34.422-34.422 34.422 0 0 0 0 0 0z" />
<glyph unicode="&#xe992;" glyph-name="twitter" d="M810.508 644.912c-9.824-4.357-19.925-8.035-30.245-11.020 12.219 13.819 21.534 30.078 27.221 47.87 1.275 3.988-0.046 8.354-3.324 10.962-3.274 2.61-7.823 2.923-11.428 0.787-21.918-12.999-45.564-22.341-70.359-27.804-24.976 24.405-58.899 38.294-93.967 38.294-74.024 0-134.249-60.222-134.249-134.244 0-5.83 0.369-11.628 1.1-17.345-91.857 8.065-177.255 53.214-235.898 125.148-2.090 2.564-5.31 3.946-8.606 3.682-3.298-0.258-6.261-2.118-7.928-4.977-11.894-20.409-18.182-43.751-18.182-67.5 0-32.347 11.549-63.038 31.95-87.020-6.203 2.148-12.223 4.833-17.968 8.023-3.084 1.717-6.849 1.691-9.913-0.067-3.066-1.757-4.989-4.989-5.069-8.521-0.014-0.595-0.014-1.19-0.014-1.793 0-48.284 25.987-91.754 65.717-115.447-3.413 0.341-6.825 0.835-10.213 1.483-3.494 0.668-7.087-0.557-9.443-3.222-2.36-2.663-3.141-6.375-2.054-9.764 14.706-45.914 52.569-79.685 98.341-89.981-37.963-23.778-81.378-36.233-126.952-36.233-9.509 0-19.074 0.559-28.434 1.666-4.65 0.553-9.096-2.193-10.68-6.615-1.584-4.424 0.095-9.356 4.051-11.892 58.548-37.54 126.246-57.382 195.772-57.382 136.679 0 222.182 64.452 269.841 118.522 59.429 67.42 93.514 156.659 93.514 244.832 0 3.684-0.057 7.404-0.17 11.111 23.447 17.665 43.634 39.044 60.061 63.617 2.495 3.732 2.225 8.664-0.666 12.1-2.887 3.437-7.698 4.548-11.805 2.729z" />
<glyph unicode="&#xe993;" glyph-name="google" d="M824 448c0-22.3-2.321-44.125-6.825-65.2-15.229-71.545-54.85-133.945-109.804-178.175-53.5-42.9-121.388-68.62-195.37-68.62-118.825 0-222.175 66.425-274.825 164.17-23.771 44-37.175 94.325-37.175 147.83 0 51.8 12.55 100.55 34.85 143.45 51.925 100.175 156.605 168.55 277.15 168.55 75.679 0 145.15-26.929 199.15-71.779l-101.029-82.75c-28.4 17.8-62.029 28.025-98.105 28.025-81.295 0-150.4-52.4-175.5-125.171v0c-6.454-18.896-10-39.25-10-60.325 0-22.913 4.15-44.85 11.7-65.075 26.325-70.325 94.204-120.413 173.675-120.413 34.125 0 66.175 9.263 93.725 25.35 36.445 21.325 64.954 54.85 80.075 94.946h-166.85v123.454h299.695c3.65-18.895 5.48-38.395 5.48-58.25z" />
<glyph unicode="&#xe994;" glyph-name="youtube" d="M767.983 691.205c-19.202 6.406-137.593 12.796-256 12.796-118.391 0-236.798-6.406-256-12.796-51.184-15.991-63.996-127.992-63.996-243.188s12.796-227.197 63.996-243.188c19.202-6.406 137.593-12.796 256-12.796 118.391 0 236.798 6.406 256 12.796 51.2 15.991 63.996 127.992 63.996 243.188s-12.796 227.197-63.996 243.188zM431.996 328.020v239.993l199.999-119.996-199.999-119.996z" />
<glyph unicode="&#xe995;" glyph-name="instagram" d="M626.708 704h-229.416c-77.908 0-141.287-63.369-141.287-141.287v-229.416c0-77.918 63.379-141.297 141.287-141.297h229.416c77.908 0.010 141.287 63.379 141.287 141.297v229.416c0 77.918-63.379 141.287-141.287 141.287zM722.586 333.287c-0.066-52.921-42.948-95.806-95.868-95.878h-229.426c-52.917 0.077-95.792 42.961-95.858 95.878v229.426c0.066 52.917 42.941 95.801 95.858 95.878h229.416c52.921-0.072 95.802-42.957 95.868-95.878v-229.416l0.010-0.010zM512 579.932c-72.748 0-131.927-59.189-131.927-131.927s59.179-131.928 131.927-131.928 131.927 59.179 131.927 131.927-59.179 131.928-131.927 131.928zM512 361.507c-47.749 0.055-86.443 38.749-86.498 86.498 0.050 47.751 38.747 86.449 86.498 86.498 47.753-0.050 86.453-38.746 86.508-86.498-0.055-47.753-38.756-86.449-86.508-86.498zM649.457 618.442c-8.822-0.020-17.279-3.524-23.53-9.75-6.243-6.254-9.759-14.723-9.78-23.56 0.036-8.833 3.55-17.297 9.78-23.56 6.259-6.213 14.711-9.715 23.53-9.75 8.821 0.039 17.274 3.54 23.54 9.75 6.228 6.262 9.734 14.728 9.76 23.56-0.013 8.834-3.522 17.304-9.76 23.56-6.252 6.229-14.714 9.734-23.54 9.75z" />
</font>
</defs>
</svg>
