<svg width="14" height="14" viewBox="0 0 14 14" fill="none" xmlns="http://www.w3.org/2000/svg">
<path d="M9.84905 8.27234L10.4116 11.5614L7.46624 10.0067L4.51311 11.5614L5.08343 8.27234L2.6928 5.95203L5.98968 5.46765L7.46624 2.48328L8.9428 5.46765L12.2397 5.95203L9.84905 8.27234ZM13.9662 5.48328C13.9662 5.2489 13.7162 5.15515 13.5287 5.1239L9.60686 4.55359L7.84905 0.998901C7.77874 0.850463 7.64593 0.678589 7.46624 0.678589C7.28655 0.678589 7.15374 0.850463 7.08343 0.998901L5.32561 4.55359L1.40374 5.1239C1.20843 5.15515 0.966239 5.2489 0.966239 5.48328C0.966239 5.6239 1.0678 5.75671 1.16155 5.85828L4.0053 8.6239L3.33343 12.5302C3.32561 12.5848 3.3178 12.6317 3.3178 12.6864C3.3178 12.8895 3.41936 13.077 3.64593 13.077C3.7553 13.077 3.85686 13.038 3.95843 12.9833L7.46624 11.1395L10.9741 12.9833C11.0678 13.038 11.1772 13.077 11.2866 13.077C11.5131 13.077 11.6069 12.8973 11.6069 12.6864C11.6069 12.6317 11.6069 12.5848 11.5991 12.5302L10.9272 8.6239L13.7631 5.85828C13.8647 5.75671 13.9662 5.6239 13.9662 5.48328Z" fill="#3AC87B"/>
</svg>
