<svg width="14" height="14" viewBox="0 0 14 14" fill="none" xmlns="http://www.w3.org/2000/svg">
<path d="M13.6655 5.48328C13.6655 5.2489 13.4155 5.15515 13.228 5.1239L9.30608 4.55359L7.54827 0.998901C7.47796 0.850463 7.34515 0.678589 7.16546 0.678589C6.98577 0.678589 6.85296 0.850463 6.78265 0.998901L5.02483 4.55359L1.10296 5.1239C0.907645 5.15515 0.665458 5.2489 0.665458 5.48328C0.665458 5.6239 0.76702 5.75671 0.86077 5.85828L3.70452 8.6239L3.03265 12.5302C3.02483 12.5848 3.01702 12.6317 3.01702 12.6864C3.01702 12.8895 3.11858 13.077 3.34515 13.077C3.45452 13.077 3.55608 13.038 3.65765 12.9833L7.16546 11.1395L10.6733 12.9833C10.767 13.038 10.8764 13.077 10.9858 13.077C11.2123 13.077 11.3061 12.8895 11.3061 12.6864C11.3061 12.6317 11.3061 12.5848 11.2983 12.5302L10.6264 8.6239L13.4623 5.85828C13.5639 5.75671 13.6655 5.6239 13.6655 5.48328Z" fill="#3AC87B"/>
</svg>
