<svg width="12" height="12" viewBox="0 0 12 12" fill="none" xmlns="http://www.w3.org/2000/svg">
<path d="M11.571 5.11584C11.571 4.91495 11.3567 4.83459 11.196 4.8078L7.83435 4.31897L6.32766 1.27209C6.26739 1.14486 6.15355 0.997537 5.99953 0.997537C5.84552 0.997537 5.73168 1.14486 5.67141 1.27209L4.16471 4.31897L0.803104 4.8078C0.635694 4.83459 0.428104 4.91495 0.428104 5.11584C0.428104 5.23638 0.515158 5.35022 0.595515 5.43727L3.03302 7.8078L2.45712 11.156C2.45043 11.2029 2.44373 11.2431 2.44373 11.2899C2.44373 11.4641 2.53078 11.6248 2.72498 11.6248C2.81873 11.6248 2.90578 11.5913 2.99284 11.5444L5.99953 9.96405L9.00623 11.5444C9.08659 11.5913 9.18034 11.6248 9.27409 11.6248C9.46828 11.6248 9.54864 11.4641 9.54864 11.2899C9.54864 11.2431 9.54864 11.2029 9.54194 11.156L8.96605 7.8078L11.3969 5.43727C11.4839 5.35022 11.571 5.23638 11.571 5.11584Z" fill="#CCCCCC"/>
</svg>
