<svg width="22" height="13" viewBox="0 0 22 13" fill="none" xmlns="http://www.w3.org/2000/svg">
<path d="M14.2857 12.6429C14.2857 12.5647 14.2522 12.4754 14.2076 12.4085L12.4219 10.2656C12.3549 10.1875 12.2433 10.1429 12.1429 10.1429H5.71429V5.85714H7.85714C8.24777 5.85714 8.57143 5.53348 8.57143 5.14286C8.57143 4.97545 8.51563 4.80804 8.40402 4.68527L4.83259 0.399553C4.69866 0.243303 4.49777 0.154018 4.28571 0.154018C4.07366 0.154018 3.87277 0.243303 3.73884 0.399553L0.167411 4.68527C0.0558036 4.80804 0 4.97545 0 5.14286C0 5.53348 0.323661 5.85714 0.714286 5.85714H2.85714L2.85714 10.5L2.85714 12.2857C2.85714 12.5647 2.80134 13 3.21429 13L13.9286 13C14.1183 13 14.2857 12.8326 14.2857 12.6429ZM21.4286 8C21.4286 7.60938 21.1049 7.28571 20.7143 7.28571H18.5714V2.64286V0.857143C18.5714 0.578125 18.6272 0.142856 18.2143 0.142856L7.5 0.142856C7.31027 0.142856 7.14286 0.310268 7.14286 0.5C7.14286 0.578125 7.17634 0.66741 7.22098 0.723213L9.0067 2.86607C9.07366 2.95536 9.18527 3 9.28571 3L15.7143 3V7.28571H13.5714C13.1808 7.28571 12.8571 7.60938 12.8571 8C12.8571 8.16741 12.9129 8.33482 13.0246 8.45759L16.596 12.7433C16.7299 12.8996 16.9308 13 17.1429 13C17.3549 13 17.5558 12.8996 17.6897 12.7433L21.2612 8.45759C21.3728 8.33482 21.4286 8.16741 21.4286 8Z" fill="#666666"/>
</svg>
