<svg width="24" height="23" viewBox="0 0 24 23" fill="none" xmlns="http://www.w3.org/2000/svg">
<path d="M23.8167 8.59766C23.8167 8.17913 23.3702 8.01172 23.0354 7.95591L16.0321 6.9375L12.8931 0.589842C12.7675 0.324776 12.5304 0.0178567 12.2095 0.0178567C11.8886 0.0178567 11.6515 0.324776 11.5259 0.589842L8.38697 6.9375L1.38362 7.95591C1.03485 8.01172 0.602367 8.17913 0.602367 8.59766C0.602367 8.84877 0.783729 9.08594 0.95114 9.2673L6.02926 14.2059L4.82949 21.1814C4.81554 21.279 4.80159 21.3627 4.80159 21.4604C4.80159 21.8231 4.98295 22.1579 5.38752 22.1579C5.58284 22.1579 5.7642 22.0882 5.94556 21.9905L12.2095 18.6981L18.4735 21.9905C18.6409 22.0882 18.8362 22.1579 19.0315 22.1579C19.4361 22.1579 19.6035 21.8231 19.6035 21.4604C19.6035 21.3627 19.6035 21.279 19.5895 21.1814L18.3898 14.2059L23.4539 9.2673C23.6353 9.08594 23.8167 8.84877 23.8167 8.59766Z" fill="#00AAFF"/>
</svg>
